<svg width="46" height="46" viewBox="0 0 46 46" fill="none" xmlns="http://www.w3.org/2000/svg">
<path d="M8.39999 40.1374C7.64999 40.4187 6.98624 40.27 6.40874 39.6912C5.82999 39.1137 5.68124 38.45 5.96249 37.7L12.0094 20.7781C12.4469 19.4656 13.3375 18.6531 14.6812 18.3406C16.025 18.0281 17.1969 18.3718 18.1969 19.3718L26.7281 27.9031C27.7281 28.9031 28.0719 30.0749 27.7594 31.4187C27.4469 32.7624 26.6344 33.6531 25.3219 34.0906L8.39999 40.1374ZM10.8375 35.2625L24.0562 30.575L15.525 22.0437L10.8375 35.2625ZM27.1969 22.7468C26.9156 22.4656 26.775 22.1374 26.775 21.7624C26.775 21.3874 26.9156 21.0593 27.1969 20.7781L36.7125 11.2625C37.7125 10.2625 38.9156 9.76245 40.3219 9.76245C41.7281 9.76245 42.9312 10.2625 43.9312 11.2625L44.1187 11.45C44.3687 11.7 44.4937 12.0125 44.4937 12.3875C44.4937 12.7625 44.3531 13.0906 44.0719 13.3718C43.7906 13.6531 43.4625 13.7937 43.0875 13.7937C42.7125 13.7937 42.3844 13.6531 42.1031 13.3718L41.9625 13.2312C41.525 12.7937 40.9781 12.575 40.3219 12.575C39.6656 12.575 39.1187 12.7937 38.6812 13.2312L29.1187 22.7937C28.8687 23.0437 28.5562 23.1687 28.1812 23.1687C27.8062 23.1687 27.4781 23.0281 27.1969 22.7468V22.7468ZM19.6969 15.2468C19.4156 14.9656 19.275 14.6375 19.275 14.2625C19.275 13.8875 19.4156 13.5593 19.6969 13.2781L19.8375 13.1375C20.275 12.7 20.4937 12.1687 20.4937 11.5437C20.4937 10.9187 20.275 10.3875 19.8375 9.94995L19.5562 9.6687C19.3062 9.4187 19.1812 9.1062 19.1812 8.7312C19.1812 8.3562 19.3219 8.02808 19.6031 7.74683C19.8844 7.46558 20.2125 7.32495 20.5875 7.32495C20.9625 7.32495 21.2906 7.46558 21.5719 7.74683L21.8062 7.9812C22.8062 8.9812 23.3062 10.1687 23.3062 11.5437C23.3062 12.9187 22.8062 14.1062 21.8062 15.1062L21.6187 15.2937C21.3687 15.5437 21.0562 15.6687 20.6812 15.6687C20.3062 15.6687 19.9781 15.5281 19.6969 15.2468V15.2468ZM23.4469 18.9968C23.1656 18.7156 23.025 18.3874 23.025 18.0124C23.025 17.6374 23.1656 17.3093 23.4469 17.0281L29.2125 11.2625C29.65 10.825 29.8687 10.2781 29.8687 9.62183C29.8687 8.96558 29.65 8.4187 29.2125 7.9812L27.15 5.9187C26.9 5.6687 26.775 5.3562 26.775 4.9812C26.775 4.6062 26.9156 4.27808 27.1969 3.99683C27.4781 3.71558 27.8062 3.57495 28.1812 3.57495C28.5562 3.57495 28.8844 3.71558 29.1656 3.99683L31.1812 6.01245C32.1812 7.01245 32.6812 8.21558 32.6812 9.62183C32.6812 11.0281 32.1812 12.2312 31.1812 13.2312L25.3687 19.0437C25.1187 19.2937 24.8062 19.4187 24.4312 19.4187C24.0562 19.4187 23.7281 19.2781 23.4469 18.9968V18.9968ZM30.9469 26.4968C30.6656 26.2156 30.525 25.8874 30.525 25.5124C30.525 25.1374 30.6656 24.8093 30.9469 24.5281L32.9625 22.5124C33.9625 21.5124 35.1656 21.0125 36.5719 21.0125C37.9781 21.0125 39.1812 21.5124 40.1812 22.5124L42.2437 24.5749C42.4937 24.8249 42.6187 25.1374 42.6187 25.5124C42.6187 25.8874 42.4781 26.2156 42.1969 26.4968C41.9156 26.7781 41.5875 26.9187 41.2125 26.9187C40.8375 26.9187 40.5094 26.7781 40.2281 26.4968L38.2125 24.4812C37.775 24.0437 37.2281 23.825 36.5719 23.825C35.9156 23.825 35.3687 24.0437 34.9312 24.4812L32.8687 26.5437C32.6187 26.7937 32.3062 26.9187 31.9312 26.9187C31.5562 26.9187 31.2281 26.7781 30.9469 26.4968Z" fill="#474747"/>
</svg>
