<svg width="46" height="46" viewBox="0 0 46 46" fill="none" xmlns="http://www.w3.org/2000/svg">
<path d="M36.275 26.45H40.025V14.3093C40.025 13.6843 39.8844 13.1062 39.6031 12.575C39.3219 12.0437 38.9312 11.6062 38.4312 11.2625L29.0562 4.55933C28.4 4.09058 27.6812 3.8562 26.9 3.8562C26.1187 3.8562 25.4 4.09058 24.7437 4.55933L15.3687 11.2625C14.8687 11.6062 14.4781 12.0437 14.1969 12.575C13.9156 13.1062 13.775 13.6843 13.775 14.3093V17.075H17.525V14.2625L26.9 7.69995L36.275 14.2625V26.45ZM28.775 15.2C28.525 15.2 28.3062 15.1062 28.1187 14.9187C27.9312 14.7312 27.8375 14.5125 27.8375 14.2625C27.8375 14.0125 27.9312 13.7937 28.1187 13.6062C28.3062 13.4187 28.525 13.325 28.775 13.325C29.025 13.325 29.2437 13.4187 29.4312 13.6062C29.6187 13.7937 29.7125 14.0125 29.7125 14.2625C29.7125 14.5125 29.6187 14.7312 29.4312 14.9187C29.2437 15.1062 29.025 15.2 28.775 15.2ZM25.025 15.2C24.775 15.2 24.5562 15.1062 24.3687 14.9187C24.1812 14.7312 24.0875 14.5125 24.0875 14.2625C24.0875 14.0125 24.1812 13.7937 24.3687 13.6062C24.5562 13.4187 24.775 13.325 25.025 13.325C25.275 13.325 25.4937 13.4187 25.6812 13.6062C25.8687 13.7937 25.9625 14.0125 25.9625 14.2625C25.9625 14.5125 25.8687 14.7312 25.6812 14.9187C25.4937 15.1062 25.275 15.2 25.025 15.2ZM28.775 18.95C28.525 18.95 28.3062 18.8562 28.1187 18.6687C27.9312 18.4812 27.8375 18.2625 27.8375 18.0125C27.8375 17.7625 27.9312 17.5437 28.1187 17.3562C28.3062 17.1687 28.525 17.075 28.775 17.075C29.025 17.075 29.2437 17.1687 29.4312 17.3562C29.6187 17.5437 29.7125 17.7625 29.7125 18.0125C29.7125 18.2625 29.6187 18.4812 29.4312 18.6687C29.2437 18.8562 29.025 18.95 28.775 18.95ZM25.025 18.95C24.775 18.95 24.5562 18.8562 24.3687 18.6687C24.1812 18.4812 24.0875 18.2625 24.0875 18.0125C24.0875 17.7625 24.1812 17.5437 24.3687 17.3562C24.5562 17.1687 24.775 17.075 25.025 17.075C25.275 17.075 25.4937 17.1687 25.6812 17.3562C25.8687 17.5437 25.9625 17.7625 25.9625 18.0125C25.9625 18.2625 25.8687 18.4812 25.6812 18.6687C25.4937 18.8562 25.275 18.95 25.025 18.95ZM26.8062 38.4499L37.9625 34.9812C37.8062 34.6999 37.58 34.4581 37.2837 34.2556C36.9862 34.0518 36.65 33.9499 36.275 33.9499H26.8062C25.9625 33.9499 25.2906 33.9187 24.7906 33.8562C24.2906 33.7937 23.775 33.6687 23.2437 33.4812L20.5719 32.5906C20.0719 32.4343 19.7125 32.1218 19.4937 31.6531C19.275 31.1843 19.2437 30.7 19.4 30.2C19.5562 29.7 19.8612 29.3325 20.315 29.0975C20.7675 28.8637 21.2437 28.825 21.7437 28.9812L23.7125 29.6375C24.2437 29.7937 24.8456 29.9187 25.5181 30.0125C26.1894 30.1062 27.1031 30.1687 28.2594 30.2H28.775C28.775 29.8562 28.6737 29.5281 28.4712 29.2156C28.2675 28.9031 28.025 28.7 27.7437 28.6062L16.775 24.575H13.775V34.8874L26.8062 38.4499ZM25.8219 42.1062L13.775 38.7312C13.525 39.5437 13.0331 40.2 12.2994 40.7C11.5644 41.2 10.8062 41.4499 10.025 41.4499H6.27499C5.24374 41.4499 4.36124 41.0831 3.62749 40.3493C2.89249 39.6143 2.52499 38.7312 2.52499 37.6999V24.575C2.52499 23.5437 2.89249 22.6606 3.62749 21.9256C4.36124 21.1918 5.24374 20.825 6.27499 20.825H16.775C16.9937 20.825 17.2125 20.8481 17.4312 20.8943C17.65 20.9418 17.8531 20.9968 18.0406 21.0593L29.0562 25.1375C30.0875 25.5125 30.9237 26.1687 31.565 27.1062C32.205 28.0437 32.525 29.075 32.525 30.2H36.275C37.8375 30.2 39.1656 30.7156 40.2594 31.7468C41.3531 32.7781 41.9 34.1374 41.9 35.8249C41.9 36.5124 41.72 37.0518 41.36 37.4431C41.0012 37.8331 40.4469 38.1531 39.6969 38.4031L27.9781 42.0593C27.6344 42.1843 27.275 42.2468 26.9 42.2468C26.525 42.2468 26.1656 42.2 25.8219 42.1062V42.1062ZM6.27499 37.6999H10.025V24.575H6.27499V37.6999Z" fill="#474747"/>
</svg>
