<svg width="179" height="179" viewBox="0 0 179 179" fill="none" xmlns="http://www.w3.org/2000/svg">
<g id="fluent:arrow-growth-24-regular">
<path id="Vector" d="M124.708 15.4001H158.573L159.317 15.5043L160.053 15.7125L160.499 15.9058C161.094 16.1587 161.637 16.5379 162.128 17.0213L162.425 17.3485L162.753 17.7724L163.154 18.4416L163.444 19.1109L163.585 19.5868L163.69 20.0628L163.756 20.7692V54.471C163.756 55.8841 163.219 57.2443 162.255 58.2769C161.29 59.3094 159.969 59.9373 158.559 60.0336C157.15 60.1299 155.756 59.6875 154.66 58.7958C153.563 57.904 152.847 56.6294 152.654 55.2295L152.602 54.471V34.4299L104.711 82.3203C103.767 83.2649 102.515 83.8392 101.183 83.9388C99.8513 84.0384 98.5279 83.6567 97.4536 82.8632L96.8289 82.3277L74.2966 60.6878L31.9835 102.993C30.9883 103.991 29.6523 104.576 28.2439 104.629C26.8356 104.681 25.4594 104.199 24.3921 103.279C23.3248 102.359 22.6455 101.068 22.4908 99.6675C22.336 98.2667 22.7174 96.8592 23.5581 95.7281L24.1009 95.1035L70.3553 48.8491C71.3006 47.9056 72.553 47.3327 73.8849 47.2344C75.2168 47.1362 76.5398 47.5191 77.6132 48.3136L78.2379 48.8491L100.77 70.489L144.704 26.5547H124.701C123.354 26.5529 122.054 26.064 121.04 25.1783C120.025 24.2926 119.366 23.0699 119.183 21.736L119.131 20.9774C119.131 19.6297 119.619 18.3275 120.505 17.3118C121.391 16.2961 122.614 15.6355 123.949 15.4522L124.708 15.4001ZM28.0422 126.946C29.5214 126.946 30.94 127.534 31.986 128.58C33.0319 129.626 33.6195 131.044 33.6195 132.523V158.551C33.6195 160.03 33.0319 161.449 31.986 162.495C30.94 163.541 29.5214 164.128 28.0422 164.128C26.563 164.128 25.1444 163.541 24.0985 162.495C23.0525 161.449 22.4649 160.03 22.4649 158.551V132.523C22.4649 131.044 23.0525 129.626 24.0985 128.58C25.1444 127.534 26.563 126.946 28.0422 126.946ZM70.8015 102.778C70.8015 101.299 70.2139 99.88 69.1679 98.8341C68.122 97.7881 66.7034 97.2005 65.2242 97.2005C63.745 97.2005 62.3264 97.7881 61.2805 98.8341C60.2345 99.88 59.6469 101.299 59.6469 102.778V158.551C59.6469 160.03 60.2345 161.449 61.2805 162.495C62.3264 163.541 63.745 164.128 65.2242 164.128C66.7034 164.128 68.122 163.541 69.1679 162.495C70.2139 161.449 70.8015 160.03 70.8015 158.551V102.778ZM102.406 112.073C103.885 112.073 105.304 112.661 106.35 113.707C107.396 114.753 107.983 116.171 107.983 117.651V158.551C107.983 160.03 107.396 161.449 106.35 162.495C105.304 163.541 103.885 164.128 102.406 164.128C100.927 164.128 99.5084 163.541 98.4625 162.495C97.4165 161.449 96.8289 160.03 96.8289 158.551V117.651C96.8289 116.171 97.4165 114.753 98.4625 113.707C99.5084 112.661 100.927 112.073 102.406 112.073ZM145.166 80.4686C145.166 78.9894 144.578 77.5708 143.532 76.5249C142.486 75.4789 141.067 74.8913 139.588 74.8913C138.109 74.8913 136.69 75.4789 135.644 76.5249C134.598 77.5708 134.011 78.9894 134.011 80.4686V158.551C134.011 160.03 134.598 161.449 135.644 162.495C136.69 163.541 138.109 164.128 139.588 164.128C141.067 164.128 142.486 163.541 143.532 162.495C144.578 161.449 145.166 160.03 145.166 158.551V80.4686Z" fill="white"/>
</g>
</svg>
