<svg width="179" height="179" viewBox="0 0 179 179" fill="none" xmlns="http://www.w3.org/2000/svg">
<g id="ph:handshake-thin">
<path id="Vector" d="M80.9423 151.812C80.7876 152.411 80.4377 152.942 79.948 153.32C79.4582 153.699 78.8564 153.904 78.2373 153.903C78.0024 153.904 77.7682 153.876 77.5402 153.819L55.231 148.242C54.9207 148.165 54.6259 148.035 54.3595 147.859L37.6276 136.704C37.3227 136.501 37.0609 136.239 36.857 135.935C36.6531 135.631 36.5112 135.289 36.4393 134.93C36.3675 134.57 36.3671 134.2 36.4382 133.841C36.5093 133.482 36.6505 133.14 36.8538 132.835C37.2642 132.219 37.9025 131.792 38.6281 131.647C38.9874 131.575 39.3573 131.574 39.7168 131.645C40.0762 131.716 40.4181 131.858 40.723 132.061L57.0506 142.951L78.9345 148.409C79.29 148.5 79.6241 148.661 79.9176 148.881C80.2111 149.101 80.4582 149.378 80.6447 149.694C80.8312 150.01 80.9536 150.359 81.0046 150.723C81.0557 151.086 81.0345 151.456 80.9423 151.812ZM173.505 84.3611C173.162 85.4033 172.616 86.3671 171.898 87.1964C171.18 88.0258 170.304 88.7043 169.322 89.1924L152.408 97.656L113.688 136.376C113.344 136.711 112.919 136.951 112.455 137.073C111.991 137.195 111.503 137.195 111.039 137.074L66.4204 125.919C66.0786 125.836 65.7564 125.687 65.4723 125.48L26.5985 97.7396L9.4762 89.1715C8.49332 88.6804 7.6168 88.0005 6.89671 87.1706C6.17663 86.3407 5.62706 85.3771 5.27942 84.3348C4.93177 83.2925 4.79284 82.1919 4.87057 81.0959C4.9483 79.9999 5.24116 78.93 5.73243 77.9472L23.0499 43.3122C23.5411 42.3293 24.221 41.4528 25.0509 40.7327C25.8808 40.0126 26.8444 39.463 27.8867 39.1154C28.929 38.7677 30.0295 38.6288 31.1255 38.7065C32.2215 38.7843 33.2915 39.0771 34.2743 39.5684L50.6297 47.7461L88.6251 36.8843C89.1268 36.7449 89.6571 36.7449 90.1588 36.8843L128.154 47.7461L144.51 39.5684C145.492 39.0771 146.562 38.7843 147.658 38.7065C148.754 38.6288 149.855 38.7677 150.897 39.1154C151.939 39.463 152.903 40.0126 153.733 40.7327C154.563 41.4528 155.243 42.3293 155.734 43.3122L173.051 77.9541C173.546 78.9355 173.841 80.0054 173.919 81.1017C173.997 82.198 173.856 83.2988 173.505 84.3402V84.3611ZM11.9651 84.1868L26.7937 91.5976L46.6071 51.9709L31.7854 44.5601C31.4581 44.3957 31.1016 44.2974 30.7364 44.2708C30.3711 44.2442 30.0041 44.2899 29.6565 44.4051C29.3088 44.5203 28.9873 44.7029 28.7102 44.9424C28.4331 45.182 28.2059 45.4737 28.0416 45.801L10.7241 80.443C10.5597 80.7703 10.4615 81.1268 10.4349 81.4921C10.4083 81.8574 10.4539 82.2243 10.5691 82.5719C10.6844 82.9196 10.867 83.2411 11.1065 83.5182C11.346 83.7953 11.6377 84.0225 11.9651 84.1868ZM135.405 106.726L111.855 87.8608C98.9361 99.5453 82.0299 101.462 68.1703 92.6085C67.1112 91.9371 66.2167 91.0362 65.5527 89.9724C64.8888 88.9086 64.4725 87.7092 64.3346 86.4628C64.1967 85.2165 64.3408 83.9551 64.7561 82.7719C65.1715 81.5887 65.8475 80.514 66.7341 79.6273L98.5945 48.7221C99.1173 48.2146 99.8179 47.9318 100.547 47.9343H108.522L89.3919 42.4686L52.2959 53.0655L31.6041 94.456L68.2749 120.648L110.844 131.294L135.405 106.726ZM147.34 94.7906L126.711 53.5116H101.676L70.6592 83.6012C70.3703 83.8906 70.1507 84.2417 70.0167 84.628C69.8827 85.0143 69.8378 85.4259 69.8853 85.8321C69.9298 86.2551 70.0688 86.6627 70.2921 87.0247C70.5153 87.3867 70.8171 87.6939 71.1751 87.9236C80.9005 94.1353 96.1335 95.8991 109.721 82.2068C110.206 81.7186 110.855 81.4272 111.543 81.3886C112.23 81.35 112.907 81.5669 113.444 81.9977L139.385 102.773L147.34 94.7906ZM168.053 80.443L150.742 45.801C150.578 45.4737 150.351 45.182 150.074 44.9424C149.797 44.7029 149.475 44.5203 149.127 44.4051C148.78 44.2899 148.413 44.2442 148.048 44.2708C147.682 44.2974 147.326 44.3957 146.998 44.5601L132.177 51.9709L151.99 91.5976L166.819 84.1868C167.146 84.0225 167.438 83.7953 167.677 83.5182C167.917 83.2411 168.099 82.9196 168.215 82.5719C168.33 82.2243 168.376 81.8574 168.349 81.4921C168.322 81.1268 168.224 80.7703 168.06 80.443H168.053Z" fill="white"/>
</g>
</svg>
