<svg width="48" height="49" viewBox="0 0 48 49" fill="none" xmlns="http://www.w3.org/2000/svg">
<g id="solar:health-linear">
<g id="Group">
<path id="Vector" d="M12 6.07404L11.452 6.58604C11.5222 6.66113 11.607 6.721 11.7013 6.76194C11.7956 6.80287 11.8972 6.82399 12 6.82399C12.1028 6.82399 12.2044 6.80287 12.2987 6.76194C12.393 6.721 12.4778 6.66113 12.548 6.58604L12 6.07404ZM9.434 19.296C7.984 18.12 6.292 16.577 4.968 14.888C3.629 13.181 2.75 11.428 2.75 9.81804H1.25C1.25 11.935 2.38 14.02 3.787 15.814C5.209 17.627 6.997 19.25 8.489 20.461L9.434 19.296ZM2.75 9.81804C2.75 6.91304 4.018 5.11804 5.586 4.50304C7.151 3.89004 9.34 4.32804 11.452 6.58604L12.548 5.56204C10.16 3.00804 7.349 2.20204 5.039 3.10604C2.732 4.01004 1.25 6.49204 1.25 9.81804H2.75ZM15.51 20.46C17.003 19.249 18.791 17.626 20.213 15.813C21.62 14.019 22.75 11.934 22.75 9.81604H21.25C21.25 11.428 20.37 13.18 19.032 14.887C17.708 16.576 16.016 18.119 14.566 19.295L15.51 20.46ZM22.75 9.81604C22.75 6.49104 21.268 4.00904 18.96 3.10604C16.65 2.20104 13.84 3.00604 11.452 5.56104L12.548 6.58604C14.66 4.32804 16.849 3.88904 18.414 4.50204C19.982 5.11604 21.25 6.91204 21.25 9.81604H22.75ZM8.489 20.461C9.759 21.493 10.642 22.25 12 22.25V20.75C11.277 20.75 10.827 20.426 9.434 19.296L8.489 20.461ZM14.566 19.295C13.173 20.425 12.723 20.75 12 20.75V22.25C13.358 22.25 14.241 21.493 15.511 20.461L14.566 19.295Z" fill="black"/>
<path id="Vector_2" d="M18.5 9.5H16.5M16.5 9.5H14.5M16.5 9.5V7.5M16.5 9.5V11.5" stroke="black" stroke-width="1.5" stroke-linecap="round"/>
</g>
<g id="Group_2">
<path id="Vector_3" d="M24 11.648L22.904 12.672C23.0443 12.8221 23.214 12.9419 23.4026 13.0238C23.5911 13.1056 23.7945 13.1479 24 13.1479C24.2055 13.1479 24.4089 13.1056 24.5974 13.0238C24.786 12.9419 24.9557 12.8221 25.096 12.672L24 11.648ZM18.868 38.092C15.968 35.74 12.584 32.654 9.936 29.276C7.258 25.862 5.5 22.356 5.5 19.136H2.5C2.5 23.37 4.76 27.54 7.574 31.128C10.418 34.754 13.994 38 16.978 40.422L18.868 38.092ZM5.5 19.136C5.5 13.326 8.036 9.73596 11.172 8.50596C14.302 7.27996 18.68 8.15596 22.904 12.672L25.096 10.624C20.32 5.51596 14.698 3.90396 10.078 5.71196C5.464 7.51996 2.5 12.484 2.5 19.136H5.5ZM31.02 40.42C34.006 37.998 37.582 34.752 40.426 31.126C43.24 27.538 45.5 23.368 45.5 19.132H42.5C42.5 22.356 40.74 25.86 38.064 29.274C35.416 32.652 32.032 35.738 29.132 38.09L31.02 40.42ZM45.5 19.132C45.5 12.482 42.536 7.51796 37.92 5.71196C33.3 3.90196 27.68 5.51196 22.904 10.622L25.096 12.672C29.32 8.15596 33.698 7.27796 36.828 8.50396C39.964 9.73196 42.5 13.324 42.5 19.132H45.5ZM16.978 40.422C19.518 42.486 21.284 44 24 44V41C22.554 41 21.654 40.352 18.868 38.092L16.978 40.422ZM29.132 38.09C26.346 40.35 25.446 41 24 41V44C26.716 44 28.482 42.486 31.022 40.422L29.132 38.09Z" fill="black"/>
<path id="Vector_4" d="M37 18.5H33M33 18.5H29M33 18.5V14.5M33 18.5V22.5" stroke="black" stroke-width="1.5" stroke-linecap="round"/>
</g>
</g>
</svg>
