<svg width="31" height="31" viewBox="0 0 31 31" fill="none" xmlns="http://www.w3.org/2000/svg">
<path d="M25.1875 28.0938H25.0228C5.98689 26.9991 3.28407 10.9372 2.90626 6.03531C2.87582 5.65419 2.92088 5.2708 3.03886 4.90712C3.15684 4.54343 3.34542 4.20661 3.5938 3.91593C3.84218 3.62526 4.14547 3.38645 4.4863 3.21319C4.82713 3.03993 5.1988 2.93562 5.58001 2.90625H10.9178C11.3059 2.90588 11.6851 3.02203 12.0063 3.23966C12.3276 3.45729 12.5761 3.76637 12.7197 4.12688L14.1922 7.75C14.334 8.10219 14.3692 8.48826 14.2934 8.86028C14.2176 9.23229 14.0342 9.57384 13.7659 9.8425L11.7025 11.9253C12.0248 13.757 12.902 15.4454 14.2153 16.7622C15.5287 18.0791 17.2148 18.9607 19.0456 19.2878L21.1478 17.205C21.4205 16.9397 21.7653 16.7606 22.1391 16.69C22.513 16.6193 22.8993 16.6603 23.25 16.8078L26.9022 18.2706C27.2573 18.4187 27.5602 18.6692 27.7724 18.9901C27.9846 19.311 28.0965 19.6878 28.0938 20.0725V25.1875C28.0938 25.9583 27.7876 26.6975 27.2425 27.2425C26.6975 27.7876 25.9583 28.0938 25.1875 28.0938ZM5.81251 4.84375C5.55558 4.84375 5.30918 4.94582 5.1275 5.12749C4.94583 5.30917 4.84376 5.55557 4.84376 5.8125V5.89C5.28939 11.625 8.1472 25.1875 25.1294 26.1562C25.2567 26.1641 25.3842 26.1468 25.5048 26.1052C25.6253 26.0637 25.7365 25.9988 25.8319 25.9142C25.9273 25.8295 26.0051 25.7269 26.0607 25.6122C26.1164 25.4975 26.1489 25.3729 26.1563 25.2456V20.0725L22.5041 18.6097L19.7238 21.3706L19.2588 21.3125C10.8306 20.2566 9.68751 11.8284 9.68751 11.7413L9.62939 11.2763L12.3806 8.49594L10.9275 4.84375H5.81251Z" fill="white"/>
</svg>
