<svg width="331" height="361" viewBox="0 0 331 361" fill="none" xmlns="http://www.w3.org/2000/svg">
<g filter="url(#filter0_d_394_58)">
<path d="M311.009 232.588V119.68C311.009 101.019 301.055 83.7847 284.905 74.4631L187.118 17.9912C170.967 8.66959 151.059 8.66959 134.891 17.9912L37.1042 74.445C20.9539 83.7847 11 101.019 11 119.68V232.588C11 251.249 20.9539 268.483 37.1042 277.805L134.891 334.259C151.041 343.58 170.949 343.58 187.118 334.259L284.905 277.805C301.055 268.483 311.009 251.249 311.009 232.588Z" fill="white"/>
</g>
<path d="M282.701 214.668V138.524C282.701 118.706 272.132 100.406 254.97 90.5062L189.014 52.4248C171.853 42.5251 150.716 42.5251 133.572 52.4248L67.6344 90.5062C50.4724 100.406 39.9043 118.706 39.9043 138.524V214.668C39.9043 234.486 50.4724 252.786 67.6344 262.686L133.59 300.767C150.752 310.667 171.889 310.667 189.033 300.767L254.989 262.686C272.132 252.786 282.701 234.486 282.701 214.668Z" fill="#A6A6A7"/>
<path d="M257.825 210.565V142.189C257.825 128.604 250.581 116.066 238.82 109.274L179.602 75.0944C167.842 68.3019 153.354 68.3019 141.593 75.0944L82.3935 109.274C70.6331 116.066 63.3889 128.604 63.3889 142.189V210.565C63.3889 224.15 70.6331 236.688 82.3935 243.48L141.611 277.659C153.372 284.452 167.86 284.452 179.62 277.659L238.82 243.48C250.581 236.688 257.825 224.132 257.825 210.565Z" fill="url(#paint0_linear_394_58)"/>
<path d="M137.487 147.331C140.927 147.331 143.656 148.276 145.673 150.167C147.883 152.264 148.988 155.312 148.988 159.311C148.988 163.253 147.934 166.272 145.826 168.368C143.833 170.351 141.036 171.342 137.435 171.342C133.675 171.342 130.839 170.282 128.925 168.163C126.965 165.998 125.985 162.985 125.985 159.123C125.985 156.673 126.452 154.542 127.386 152.731C129.209 149.176 132.576 147.376 137.487 147.331ZM137.504 149.142C134.929 149.142 133.032 150.111 131.813 152.047C130.708 153.813 130.155 156.183 130.155 159.157C130.155 166.072 132.616 169.53 137.538 169.53C139.999 169.53 141.862 168.562 143.126 166.625C143.73 165.702 144.163 164.671 144.425 163.532C144.698 162.381 144.835 161.002 144.835 159.396C144.835 152.628 142.391 149.21 137.504 149.142ZM171.376 147.672C171.273 147.991 171.222 148.367 171.222 148.8V163.275C171.222 165.144 170.778 166.722 169.889 168.009C168.989 169.308 167.815 170.191 166.368 170.658C164.99 171.114 163.474 171.342 161.822 171.342C159.441 171.342 157.578 170.909 156.234 170.043C155.152 169.359 154.309 168.442 153.705 167.292C153.101 166.129 152.799 164.853 152.799 163.463V148.8C152.799 148.39 152.748 148.014 152.645 147.672H156.849C156.747 148.026 156.696 148.396 156.696 148.783V163.532C156.696 164.922 157.02 166.095 157.67 167.052C158.741 168.647 160.489 169.445 162.916 169.445C165.013 169.445 166.63 168.887 167.77 167.77C168.909 166.653 169.479 165.064 169.479 163.002V148.8C169.467 148.345 169.416 147.969 169.325 147.672H171.376ZM180.143 160.182V169.872C180.143 170.271 180.194 170.647 180.297 171H176.075C176.178 170.704 176.229 170.328 176.229 169.872V148.783C176.229 148.396 176.178 148.026 176.075 147.672H183.168C184.786 147.672 186.204 148.008 187.423 148.681C188.369 149.205 189.115 149.923 189.662 150.834C190.22 151.757 190.499 152.805 190.499 153.979C190.499 156.588 189.269 158.365 186.808 159.311C186.136 159.561 185.27 159.789 184.21 159.994L191.866 170.077C192.185 170.487 192.499 170.795 192.806 171H187.714C187.6 170.647 187.434 170.311 187.218 169.992L180.143 160.182ZM180.126 158.849H181.937C182.997 158.849 183.908 158.581 184.672 158.046C185.913 157.157 186.534 155.858 186.534 154.149C186.534 152.566 186.01 151.307 184.962 150.373C184.199 149.7 183.128 149.364 181.749 149.364H180.126V158.849ZM115.492 206.547L116.278 203.779C116.905 204.314 117.423 204.724 117.833 205.009C119.064 205.864 120.391 206.291 121.815 206.291C123.251 206.291 124.379 205.869 125.199 205.026C125.928 204.263 126.293 203.34 126.293 202.258C126.293 200.982 125.774 199.951 124.738 199.165C124.259 198.8 123.08 198.173 121.2 197.285C119.252 196.362 117.879 195.445 117.081 194.533C116.136 193.462 115.663 192.209 115.663 190.773C115.663 189.497 116.016 188.341 116.722 187.304C118.101 185.322 120.328 184.331 123.404 184.331C125.159 184.331 126.971 184.746 128.839 185.578L128.104 188.056C126.315 186.814 124.675 186.193 123.182 186.193C121.986 186.193 121.018 186.569 120.277 187.321C119.65 187.971 119.337 188.751 119.337 189.663C119.337 190.608 119.65 191.383 120.277 191.987C120.915 192.591 122.214 193.337 124.174 194.226C126.327 195.217 127.785 196.18 128.549 197.114C129.506 198.299 129.984 199.672 129.984 201.232C129.984 202.565 129.637 203.796 128.942 204.924C127.54 207.202 125.21 208.342 121.952 208.342C120.778 208.342 119.707 208.211 118.739 207.949C117.782 207.675 116.7 207.208 115.492 206.547ZM137.452 197.968V206.872C137.452 207.202 137.509 207.578 137.623 208H133.402C133.505 207.647 133.556 207.271 133.556 206.872V185.817C133.556 185.396 133.505 185.014 133.402 184.672H140.87C142.693 184.672 144.237 185.037 145.502 185.766C147.439 186.905 148.407 188.688 148.407 191.115C148.407 193.804 147.228 195.741 144.869 196.926C143.491 197.621 141.844 197.968 139.93 197.968H137.452ZM137.452 196.174H139.537C140.677 196.174 141.594 195.969 142.289 195.559C142.95 195.16 143.474 194.567 143.861 193.781C144.248 192.995 144.442 192.124 144.442 191.167C144.442 189.685 144.032 188.523 143.212 187.68C142.403 186.826 141.286 186.398 139.862 186.398H137.452V196.174ZM151.62 184.672H155.824C155.733 184.946 155.682 185.316 155.67 185.783V206.872C155.682 207.351 155.733 207.727 155.824 208H151.62C151.722 207.658 151.774 207.282 151.774 206.872V185.783C151.774 185.384 151.722 185.014 151.62 184.672ZM165.018 197.182V206.872C165.018 207.271 165.07 207.647 165.172 208H160.951C161.053 207.704 161.105 207.328 161.105 206.872V185.783C161.105 185.396 161.053 185.026 160.951 184.672H168.043C169.661 184.672 171.079 185.008 172.299 185.681C173.244 186.205 173.99 186.923 174.537 187.834C175.096 188.757 175.375 189.805 175.375 190.979C175.375 193.588 174.144 195.365 171.683 196.311C171.011 196.561 170.145 196.789 169.086 196.994L176.742 207.077C177.061 207.487 177.374 207.795 177.682 208H172.589C172.475 207.647 172.31 207.311 172.093 206.992L165.018 197.182ZM165.001 195.849H166.813C167.872 195.849 168.784 195.581 169.547 195.046C170.789 194.157 171.41 192.858 171.41 191.149C171.41 189.566 170.886 188.307 169.838 187.373C169.074 186.7 168.003 186.364 166.625 186.364H165.001V195.849ZM180.023 184.672H184.227C184.136 184.946 184.085 185.316 184.073 185.783V206.872C184.085 207.351 184.136 207.727 184.227 208H180.023C180.126 207.658 180.177 207.282 180.177 206.872V185.783C180.177 185.384 180.126 185.014 180.023 184.672ZM186.244 184.672H203.163V186.792C202.605 186.689 202.12 186.638 201.71 186.638H196.686V206.872C196.686 207.282 196.737 207.658 196.84 208H192.635C192.738 207.67 192.789 207.294 192.789 206.872V186.638H187.731C187.252 186.638 186.757 186.689 186.244 186.792V184.672Z" fill="#474747"/>
<defs>
<filter id="filter0_d_394_58" x="0" y="0" width="330.009" height="360.25" filterUnits="userSpaceOnUse" color-interpolation-filters="sRGB">
<feFlood flood-opacity="0" result="BackgroundImageFix"/>
<feColorMatrix in="SourceAlpha" type="matrix" values="0 0 0 0 0 0 0 0 0 0 0 0 0 0 0 0 0 0 127 0" result="hardAlpha"/>
<feOffset dx="4" dy="4"/>
<feGaussianBlur stdDeviation="7.5"/>
<feComposite in2="hardAlpha" operator="out"/>
<feColorMatrix type="matrix" values="0 0 0 0 0.4875 0 0 0 0 0.4875 0 0 0 0 0.4875 0 0 0 0.25 0"/>
<feBlend mode="normal" in2="BackgroundImageFix" result="effect1_dropShadow_394_58"/>
<feBlend mode="normal" in="SourceGraphic" in2="effect1_dropShadow_394_58" result="shape"/>
</filter>
<linearGradient id="paint0_linear_394_58" x1="209.212" y1="260.565" x2="111.997" y2="92.1828" gradientUnits="userSpaceOnUse">
<stop offset="0.1537" stop-color="white"/>
<stop offset="0.4791" stop-color="#F8F8FB"/>
<stop offset="0.9365" stop-color="#E6E6EF"/>
<stop offset="1" stop-color="#E3E3ED"/>
</linearGradient>
</defs>
</svg>
