<svg width="23" height="20" viewBox="0 0 23 20" fill="none" xmlns="http://www.w3.org/2000/svg">
<path d="M22.5243 3.92716L19.3784 7.06256C18.7534 14.3438 12.6076 20 5.26392 20C3.75351 20 2.50352 19.7604 1.55561 19.2917C0.795196 18.9063 0.482697 18.5 0.399364 18.375C0.330416 18.2703 0.285988 18.1514 0.269389 18.0271C0.252791 17.9028 0.264449 17.7764 0.303497 17.6572C0.342545 17.5381 0.407976 17.4293 0.494913 17.3389C0.581851 17.2486 0.688055 17.179 0.805612 17.1354C0.826445 17.125 3.28477 16.1875 4.87851 14.3854C3.89012 13.6817 3.02138 12.8235 2.3056 11.8438C0.878528 9.9063 -0.631881 6.54173 0.274365 1.52092C0.302853 1.37166 0.371124 1.23286 0.471965 1.11918C0.572807 1.00551 0.702476 0.921176 0.847278 0.875094C0.992542 0.827528 1.14809 0.820833 1.2969 0.85574C1.44572 0.890647 1.58206 0.965811 1.69102 1.07301C1.72227 1.11468 5.19101 4.53133 9.43057 5.63549V5.00007C9.43466 4.33936 9.56885 3.68592 9.82548 3.07707C10.0821 2.46822 10.4562 1.91588 10.9263 1.45158C11.3963 0.987291 11.9533 0.620139 12.5653 0.371092C13.1773 0.122045 13.8323 -0.0040189 14.493 9.76584e-05C15.3602 0.0124655 16.2094 0.249244 16.9579 0.687365C17.7063 1.12549 18.3285 1.75001 18.7639 2.50009H21.9305C22.095 2.49957 22.256 2.54777 22.3932 2.6386C22.5304 2.72943 22.6376 2.85883 22.7013 3.0105C22.7614 3.16442 22.7766 3.3322 22.7453 3.49442C22.7139 3.65664 22.6373 3.80667 22.5243 3.92716Z" fill="#474747"/>
</svg>
