<svg width="41" height="40" viewBox="0 0 41 40" fill="none" xmlns="http://www.w3.org/2000/svg">
<g id="basil:cancel-outline">
<path id="Vector" d="M14.6166 14.1166C14.851 13.8825 15.1687 13.751 15.4999 13.751C15.8312 13.751 16.1489 13.8825 16.3833 14.1166L20.4999 18.2333L24.6166 14.1166C24.731 13.9938 24.869 13.8953 25.0224 13.827C25.1757 13.7586 25.3412 13.7219 25.5091 13.7189C25.6769 13.716 25.8436 13.7469 25.9993 13.8097C26.1549 13.8726 26.2963 13.9662 26.415 14.0849C26.5337 14.2036 26.6273 14.345 26.6901 14.5006C26.753 14.6562 26.7839 14.823 26.7809 14.9908C26.778 15.1586 26.7412 15.3242 26.6729 15.4775C26.6046 15.6308 26.5061 15.7688 26.3833 15.8833L22.2666 19.9999L26.3833 24.1166C26.6041 24.3536 26.7243 24.667 26.7186 24.9908C26.7128 25.3146 26.5817 25.6236 26.3526 25.8526C26.1236 26.0817 25.8146 26.2128 25.4908 26.2186C25.167 26.2243 24.8536 26.1041 24.6166 25.8833L20.4999 21.7666L16.3833 25.8833C16.2688 26.0061 16.1308 26.1046 15.9775 26.1729C15.8242 26.2412 15.6586 26.278 15.4908 26.2809C15.323 26.2839 15.1562 26.253 15.0006 26.1901C14.845 26.1273 14.7036 26.0337 14.5849 25.915C14.4662 25.7963 14.3726 25.6549 14.3097 25.4993C14.2469 25.3436 14.216 25.1769 14.2189 25.0091C14.2219 24.8412 14.2586 24.6757 14.327 24.5224C14.3953 24.369 14.4938 24.231 14.6166 24.1166L18.7333 19.9999L14.6166 15.8833C14.3825 15.6489 14.251 15.3312 14.251 14.9999C14.251 14.6687 14.3825 14.351 14.6166 14.1166Z" fill="white"/>
<path id="Vector_2" fill-rule="evenodd" clip-rule="evenodd" d="M12.6965 6.28189C17.884 5.70682 23.1191 5.70682 28.3065 6.28189C31.3515 6.62189 33.8099 9.02022 34.1665 12.0819C34.7832 17.3436 34.7832 22.6586 34.1665 27.9202C33.8082 30.9819 31.3499 33.3786 28.3065 33.7202C23.1191 34.2953 17.884 34.2953 12.6965 33.7202C9.65153 33.3786 7.19319 30.9819 6.83653 27.9202C6.22116 22.6587 6.22116 17.3434 6.83653 12.0819C7.19319 9.02022 9.65319 6.62189 12.6965 6.28189ZM28.0299 8.76522C23.0263 8.21061 17.9768 8.21061 12.9732 8.76522C12.0469 8.86798 11.1824 9.28001 10.5192 9.93475C9.85595 10.5895 9.43285 11.4487 9.31819 12.3736C8.72544 17.4418 8.72544 22.5619 9.31819 27.6302C9.4332 28.5548 9.85645 29.4136 10.5196 30.068C11.1828 30.7224 12.0472 31.1342 12.9732 31.2369C17.9349 31.7902 23.0682 31.7902 28.0299 31.2369C28.9556 31.1339 29.8196 30.7219 30.4824 30.0675C31.1453 29.4132 31.5683 28.5545 31.6832 27.6302C32.276 22.5619 32.276 17.4418 31.6832 12.3736C31.5679 11.4495 31.1447 10.5913 30.4819 9.93726C29.8191 9.28322 28.9553 8.87152 28.0299 8.76856V8.76522Z" fill="white"/>
</g>
</svg>
