<svg width="199" height="45" viewBox="0 0 199 45" fill="none" xmlns="http://www.w3.org/2000/svg">
<g clip-path="url(#clip0_3329_4817)">
<path fill-rule="evenodd" clip-rule="evenodd" d="M7.14514 21.8406C-0.692807 28.9951 -5.63896 41 11.7903 41C6.92269 24.7913 33.9433 18.9842 44.359 19.5501C55.3636 10.5767 55.0364 -1.17221 39.7138 0.0943057C42.1215 16.7341 20.505 23.2419 7.14514 21.8271V21.8406Z" fill="#15284A"/>
<path fill-rule="evenodd" clip-rule="evenodd" d="M15.375 36.5672C15.375 38.8981 17.4163 40.6228 19.3136 40.6228C24.3775 40.6228 33.7595 29.561 39.3468 23.673C32.608 23.673 28.3554 24.3063 23.9588 26.6103C21.224 28.0385 15.375 32.6734 15.375 36.5672Z" fill="#A3A2A3"/>
<path fill-rule="evenodd" clip-rule="evenodd" d="M12.1562 17.4078C18.7773 17.4078 36.1281 14.3089 36.1281 4.51364C36.1281 2.02103 35.4346 0.458099 32.5558 0.458099C28.1593 0.458099 14.1844 14.6457 12.1562 17.4078Z" fill="#A3A2A3"/>
</g>
<path d="M56.2897 24.0964C58.213 24.0964 59.6163 24.4906 60.4998 25.2789C61.3833 26.0672 61.825 27.1716 61.825 28.5919C61.825 29.2376 61.7231 29.8526 61.5192 30.4371C61.3221 31.0147 60.9959 31.5278 60.5406 31.9763C60.0852 32.4181 59.4838 32.7681 58.7362 33.0263C57.9955 33.2846 57.0814 33.4137 55.9941 33.4137H54.4038V39H51.9572V24.0964H56.2897ZM56.1266 26.125H54.4038V31.3749H55.7392C56.5072 31.3749 57.1596 31.2866 57.6965 31.1099C58.2333 30.9264 58.6411 30.6375 58.9197 30.2434C59.1984 29.8492 59.3377 29.3293 59.3377 28.6837C59.3377 27.8206 59.076 27.1784 58.5528 26.757C58.0363 26.3357 57.2275 26.125 56.1266 26.125ZM73.0979 39L71.6402 34.8612H65.9418L64.484 39H61.9049L67.4505 24.0352H70.1621L75.6974 39H73.0979ZM71.0082 32.7613L69.5912 28.6837C69.5368 28.507 69.4587 28.2589 69.3567 27.9395C69.2548 27.6133 69.1529 27.2837 69.0509 26.9507C68.949 26.6109 68.864 26.3255 68.7961 26.0944C68.7281 26.3731 68.6432 26.6857 68.5412 27.0323C68.4461 27.3721 68.3509 27.6915 68.2558 27.9905C68.1674 28.2895 68.0995 28.5206 68.0519 28.6837L66.6248 32.7613H71.0082ZM83.0762 25.9619C82.3626 25.9619 81.7238 26.091 81.1598 26.3493C80.6025 26.6075 80.1302 26.9813 79.7428 27.4706C79.3554 27.9531 79.0598 28.541 78.8559 29.2342C78.652 29.9206 78.5501 30.6953 78.5501 31.5584C78.5501 32.7137 78.7132 33.7093 79.0394 34.5452C79.3656 35.3743 79.8617 36.0132 80.5277 36.4617C81.1937 36.9034 82.0364 37.1243 83.0558 37.1243C83.6879 37.1243 84.3029 37.0631 84.9009 36.9408C85.499 36.8185 86.1174 36.652 86.7562 36.4413V38.5209C86.1514 38.7587 85.5398 38.932 84.9213 39.0408C84.3029 39.1495 83.5893 39.2039 82.7806 39.2039C81.2583 39.2039 79.9942 38.8879 78.9884 38.2558C77.9894 37.6238 77.2419 36.7335 76.7458 35.585C76.2564 34.4365 76.0118 33.0909 76.0118 31.5482C76.0118 30.4201 76.1681 29.3871 76.4807 28.4492C76.7933 27.5114 77.2487 26.7027 77.8467 26.0231C78.4448 25.3367 79.1821 24.81 80.0588 24.443C80.9423 24.0692 81.9515 23.8823 83.0864 23.8823C83.834 23.8823 84.5679 23.9673 85.2883 24.1372C86.0155 24.3003 86.6883 24.5347 87.3067 24.8406L86.4504 26.859C85.9339 26.6143 85.3937 26.4036 84.8296 26.2269C84.2655 26.0502 83.6811 25.9619 83.0762 25.9619ZM95.9276 39H93.5014V24.0964H101.922V26.1556H95.9276V30.804H101.534V32.853H95.9276V39ZM113.439 33.3321C113.439 34.27 113.317 35.1025 113.072 35.8297C112.828 36.5568 112.471 37.1719 112.002 37.6748C111.533 38.1709 110.969 38.5515 110.31 38.8165C109.65 39.0748 108.906 39.2039 108.077 39.2039C107.302 39.2039 106.592 39.0748 105.947 38.8165C105.301 38.5515 104.74 38.1709 104.265 37.6748C103.796 37.1719 103.432 36.5568 103.174 35.8297C102.916 35.1025 102.786 34.27 102.786 33.3321C102.786 32.0885 103.001 31.0351 103.429 30.172C103.864 29.3021 104.482 28.6395 105.284 28.1842C106.086 27.7289 107.041 27.5012 108.149 27.5012C109.188 27.5012 110.106 27.7289 110.901 28.1842C111.696 28.6395 112.318 29.3021 112.766 30.172C113.215 31.0419 113.439 32.0953 113.439 33.3321ZM105.253 33.3321C105.253 34.1545 105.352 34.8578 105.549 35.4423C105.753 36.0268 106.066 36.4753 106.487 36.7879C106.908 37.0937 107.452 37.2466 108.118 37.2466C108.784 37.2466 109.328 37.0937 109.749 36.7879C110.17 36.4753 110.48 36.0268 110.677 35.4423C110.874 34.8578 110.972 34.1545 110.972 33.3321C110.972 32.5098 110.874 31.8132 110.677 31.2424C110.48 30.6647 110.17 30.2264 109.749 29.9274C109.328 29.6215 108.781 29.4686 108.108 29.4686C107.116 29.4686 106.392 29.8016 105.936 30.4676C105.481 31.1336 105.253 32.0885 105.253 33.3321ZM125.089 27.7153V39H123.203L122.877 37.4811H122.745C122.507 37.8685 122.204 38.1913 121.837 38.4495C121.47 38.701 121.063 38.8879 120.614 39.0102C120.166 39.1393 119.693 39.2039 119.197 39.2039C118.348 39.2039 117.621 39.0612 117.016 38.7757C116.418 38.4835 115.959 38.035 115.639 37.4301C115.32 36.8253 115.16 36.0437 115.16 35.0855V27.7153H117.566V34.637C117.566 35.5137 117.743 36.1695 118.096 36.6044C118.456 37.0394 119.014 37.2568 119.768 37.2568C120.495 37.2568 121.073 37.1073 121.501 36.8083C121.929 36.5093 122.232 36.0675 122.408 35.4831C122.592 34.8986 122.684 34.1816 122.684 33.3321V27.7153H125.089ZM133.467 27.5012C134.738 27.5012 135.727 27.8308 136.434 28.49C137.147 29.1424 137.504 30.1924 137.504 31.6399V39H135.108V32.0885C135.108 31.2118 134.928 30.556 134.568 30.121C134.208 29.6793 133.651 29.4584 132.896 29.4584C131.802 29.4584 131.041 29.7948 130.613 30.4676C130.191 31.1404 129.981 32.1157 129.981 33.3933V39H127.585V27.7153H129.451L129.787 29.2444H129.92C130.164 28.8502 130.467 28.5274 130.827 28.2759C131.194 28.0177 131.602 27.824 132.05 27.6949C132.505 27.5657 132.978 27.5012 133.467 27.5012ZM143.71 39.2039C142.365 39.2039 141.284 38.7146 140.469 37.7359C139.66 36.7505 139.256 35.2996 139.256 33.3831C139.256 31.4463 139.667 29.9817 140.489 28.9895C141.318 27.9973 142.409 27.5012 143.761 27.5012C144.332 27.5012 144.832 27.5793 145.26 27.7356C145.688 27.8852 146.055 28.089 146.361 28.3473C146.673 28.6055 146.939 28.8944 147.156 29.2138H147.268C147.234 29.0031 147.193 28.7007 147.146 28.3065C147.105 27.9055 147.085 27.5352 147.085 27.1954V23.1382H149.49V39H147.615L147.187 37.4607H147.085C146.881 37.7869 146.623 38.0825 146.31 38.3476C146.004 38.6058 145.637 38.8131 145.209 38.9694C144.788 39.1257 144.288 39.2039 143.71 39.2039ZM144.383 37.2568C145.409 37.2568 146.133 36.9612 146.555 36.37C146.976 35.7787 147.193 34.8918 147.207 33.7093V33.3933C147.207 32.1293 147.003 31.1608 146.595 30.488C146.188 29.8084 145.443 29.4686 144.363 29.4686C143.5 29.4686 142.841 29.8186 142.385 30.5186C141.937 31.2118 141.712 32.1802 141.712 33.4239C141.712 34.6676 141.937 35.619 142.385 36.2782C142.841 36.9306 143.507 37.2568 144.383 37.2568ZM156.411 27.5012C157.838 27.5012 158.915 27.8172 159.642 28.4492C160.376 29.0813 160.743 30.0667 160.743 31.4055V39H159.041L158.582 37.3995H158.5C158.181 37.8073 157.851 38.1437 157.511 38.4087C157.172 38.6738 156.778 38.8709 156.329 39C155.887 39.1359 155.347 39.2039 154.708 39.2039C154.035 39.2039 153.434 39.0816 152.904 38.8369C152.374 38.5854 151.956 38.2049 151.65 37.6952C151.344 37.1855 151.191 36.5399 151.191 35.7583C151.191 34.5962 151.623 33.7229 152.486 33.1385C153.356 32.554 154.667 32.2312 156.421 32.17L158.378 32.0987V31.5074C158.378 30.7259 158.194 30.1686 157.827 29.8356C157.467 29.5026 156.958 29.3361 156.298 29.3361C155.734 29.3361 155.187 29.4177 154.657 29.5808C154.127 29.7439 153.611 29.9443 153.108 30.1822L152.333 28.49C152.883 28.1978 153.509 27.9599 154.209 27.7764C154.915 27.5929 155.649 27.5012 156.411 27.5012ZM158.368 33.6074L156.91 33.6584C155.714 33.6991 154.875 33.903 154.392 34.27C153.91 34.637 153.668 35.1399 153.668 35.7787C153.668 36.336 153.835 36.7437 154.168 37.002C154.501 37.2534 154.939 37.3792 155.483 37.3792C156.312 37.3792 156.998 37.1447 157.542 36.6758C158.093 36.2001 158.368 35.5035 158.368 34.586V33.6074ZM167.357 37.267C167.67 37.267 167.979 37.2398 168.285 37.1855C168.591 37.1243 168.869 37.0529 169.121 36.9714V38.7859C168.856 38.9015 168.513 39 168.091 39.0816C167.67 39.1631 167.232 39.2039 166.776 39.2039C166.137 39.2039 165.563 39.0985 165.053 38.8879C164.544 38.6704 164.139 38.3 163.84 37.7767C163.541 37.2534 163.392 36.5297 163.392 35.6054V29.54H161.852V28.4696L163.504 27.6235L164.289 25.2075H165.798V27.7153H169.029V29.54H165.798V35.5748C165.798 36.1457 165.94 36.5704 166.226 36.8491C166.511 37.1277 166.888 37.267 167.357 37.267ZM172.871 27.7153V39H170.475V27.7153H172.871ZM171.688 23.393C172.055 23.393 172.371 23.4916 172.636 23.6886C172.908 23.8857 173.044 24.2255 173.044 24.708C173.044 25.1838 172.908 25.5236 172.636 25.7274C172.371 25.9245 172.055 26.0231 171.688 26.0231C171.307 26.0231 170.985 25.9245 170.72 25.7274C170.461 25.5236 170.332 25.1838 170.332 24.708C170.332 24.2255 170.461 23.8857 170.72 23.6886C170.985 23.4916 171.307 23.393 171.688 23.393ZM185.357 33.3321C185.357 34.27 185.234 35.1025 184.99 35.8297C184.745 36.5568 184.388 37.1719 183.919 37.6748C183.45 38.1709 182.886 38.5515 182.227 38.8165C181.568 39.0748 180.824 39.2039 179.995 39.2039C179.22 39.2039 178.51 39.0748 177.864 38.8165C177.218 38.5515 176.658 38.1709 176.182 37.6748C175.713 37.1719 175.349 36.5568 175.091 35.8297C174.833 35.1025 174.704 34.27 174.704 33.3321C174.704 32.0885 174.918 31.0351 175.346 30.172C175.781 29.3021 176.399 28.6395 177.201 28.1842C178.003 27.7289 178.958 27.5012 180.066 27.5012C181.106 27.5012 182.023 27.7289 182.818 28.1842C183.613 28.6395 184.235 29.3021 184.684 30.172C185.132 31.0419 185.357 32.0953 185.357 33.3321ZM177.171 33.3321C177.171 34.1545 177.269 34.8578 177.466 35.4423C177.67 36.0268 177.983 36.4753 178.404 36.7879C178.826 37.0937 179.369 37.2466 180.035 37.2466C180.701 37.2466 181.245 37.0937 181.666 36.7879C182.088 36.4753 182.397 36.0268 182.594 35.4423C182.791 34.8578 182.89 34.1545 182.89 33.3321C182.89 32.5098 182.791 31.8132 182.594 31.2424C182.397 30.6647 182.088 30.2264 181.666 29.9274C181.245 29.6215 180.698 29.4686 180.025 29.4686C179.033 29.4686 178.309 29.8016 177.854 30.4676C177.398 31.1336 177.171 32.0885 177.171 33.3321ZM193.051 27.5012C194.322 27.5012 195.311 27.8308 196.018 28.49C196.731 29.1424 197.088 30.1924 197.088 31.6399V39H194.693V32.0885C194.693 31.2118 194.513 30.556 194.152 30.121C193.792 29.6793 193.235 29.4584 192.481 29.4584C191.386 29.4584 190.625 29.7948 190.197 30.4676C189.776 31.1404 189.565 32.1157 189.565 33.3933V39H187.169V27.7153H189.035L189.371 29.2444H189.504C189.749 28.8502 190.051 28.5274 190.411 28.2759C190.778 28.0177 191.186 27.824 191.634 27.6949C192.09 27.5657 192.562 27.5012 193.051 27.5012Z" fill="#15284A"/>
<defs>
<clipPath id="clip0_3329_4817">
<rect width="52" height="41" fill="white"/>
</clipPath>
</defs>
</svg>
