<svg width="25" height="25" viewBox="0 0 25 25" fill="none" xmlns="http://www.w3.org/2000/svg">
<g id="material-symbols:upload-rounded">
<path id="Vector" d="M12.4994 16.6667C12.2042 16.6667 11.9566 16.5667 11.7566 16.3667C11.5566 16.1667 11.457 15.9194 11.4577 15.625V8.17708L9.50456 10.1302C9.29623 10.3385 9.05317 10.4427 8.77539 10.4427C8.49761 10.4427 8.24588 10.3299 8.02018 10.1042C7.81185 9.89583 7.7122 9.64861 7.72123 9.3625C7.73025 9.07639 7.82991 8.8375 8.02018 8.64583L11.7702 4.89583C11.8744 4.79167 11.9872 4.71806 12.1087 4.675C12.2303 4.63194 12.3605 4.61007 12.4994 4.60938C12.6382 4.60938 12.7684 4.63125 12.89 4.675C13.0115 4.71875 13.1244 4.79236 13.2285 4.89583L16.9785 8.64583C17.1868 8.85417 17.2868 9.10174 17.2785 9.38854C17.2702 9.67535 17.1702 9.91389 16.9785 10.1042C16.7702 10.3125 16.5226 10.4212 16.2358 10.4302C15.949 10.4392 15.7018 10.3392 15.4941 10.1302L13.541 8.17708V15.625C13.541 15.9201 13.441 16.1677 13.241 16.3677C13.041 16.5677 12.7938 16.6674 12.4994 16.6667ZM6.24935 20.8333C5.67643 20.8333 5.18581 20.6292 4.77748 20.2208C4.36914 19.8125 4.16532 19.3222 4.16602 18.75V16.6667C4.16602 16.3715 4.26602 16.124 4.46602 15.924C4.66602 15.724 4.91324 15.6243 5.20768 15.625C5.50282 15.625 5.75039 15.725 5.95039 15.925C6.15039 16.125 6.25005 16.3722 6.24935 16.6667V18.75H18.7494V16.6667C18.7494 16.3715 18.8494 16.124 19.0494 15.924C19.2494 15.724 19.4966 15.6243 19.791 15.625C20.0862 15.625 20.3337 15.725 20.5337 15.925C20.7337 16.125 20.8334 16.3722 20.8327 16.6667V18.75C20.8327 19.3229 20.6285 19.8135 20.2202 20.2219C19.8119 20.6302 19.3216 20.834 18.7494 20.8333H6.24935Z" fill="#545454"/>
</g>
</svg>
