<svg width="55" height="55" viewBox="0 0 55 55" fill="none" xmlns="http://www.w3.org/2000/svg">
<path d="M43.5415 32.0833H48.1248V17.2448C48.1248 16.4809 47.953 15.7743 47.6092 15.125C47.2655 14.4757 46.788 13.9409 46.1769 13.5208L34.7186 5.3281C33.9165 4.75519 33.038 4.46873 32.0832 4.46873C31.1283 4.46873 30.2498 4.75519 29.4478 5.3281L17.9894 13.5208C17.3783 13.9409 16.9009 14.4757 16.5571 15.125C16.2134 15.7743 16.0415 16.4809 16.0415 17.2448V20.625H20.6248V17.1875L32.0832 9.16664L43.5415 17.1875V32.0833ZM34.3748 18.3333C34.0693 18.3333 33.8019 18.2187 33.5728 17.9896C33.3436 17.7604 33.229 17.493 33.229 17.1875C33.229 16.8819 33.3436 16.6146 33.5728 16.3854C33.8019 16.1562 34.0693 16.0416 34.3748 16.0416C34.6804 16.0416 34.9478 16.1562 35.1769 16.3854C35.4061 16.6146 35.5207 16.8819 35.5207 17.1875C35.5207 17.493 35.4061 17.7604 35.1769 17.9896C34.9478 18.2187 34.6804 18.3333 34.3748 18.3333ZM29.7915 18.3333C29.4859 18.3333 29.2186 18.2187 28.9894 17.9896C28.7603 17.7604 28.6457 17.493 28.6457 17.1875C28.6457 16.8819 28.7603 16.6146 28.9894 16.3854C29.2186 16.1562 29.4859 16.0416 29.7915 16.0416C30.0971 16.0416 30.3644 16.1562 30.5936 16.3854C30.8228 16.6146 30.9373 16.8819 30.9373 17.1875C30.9373 17.493 30.8228 17.7604 30.5936 17.9896C30.3644 18.2187 30.0971 18.3333 29.7915 18.3333ZM34.3748 22.9166C34.0693 22.9166 33.8019 22.8021 33.5728 22.5729C33.3436 22.3437 33.229 22.0764 33.229 21.7708C33.229 21.4653 33.3436 21.1979 33.5728 20.9687C33.8019 20.7396 34.0693 20.625 34.3748 20.625C34.6804 20.625 34.9478 20.7396 35.1769 20.9687C35.4061 21.1979 35.5207 21.4653 35.5207 21.7708C35.5207 22.0764 35.4061 22.3437 35.1769 22.5729C34.9478 22.8021 34.6804 22.9166 34.3748 22.9166ZM29.7915 22.9166C29.4859 22.9166 29.2186 22.8021 28.9894 22.5729C28.7603 22.3437 28.6457 22.0764 28.6457 21.7708C28.6457 21.4653 28.7603 21.1979 28.9894 20.9687C29.2186 20.7396 29.4859 20.625 29.7915 20.625C30.0971 20.625 30.3644 20.7396 30.5936 20.9687C30.8228 21.1979 30.9373 21.4653 30.9373 21.7708C30.9373 22.0764 30.8228 22.3437 30.5936 22.5729C30.3644 22.8021 30.0971 22.9166 29.7915 22.9166ZM31.9686 46.75L45.604 42.5104C45.413 42.1666 45.1365 41.871 44.7744 41.6235C44.4108 41.3745 43.9998 41.25 43.5415 41.25H31.9686C30.9373 41.25 30.1162 41.2118 29.505 41.1354C28.8939 41.059 28.2637 40.9062 27.6144 40.6771L24.3488 39.5885C23.7377 39.3975 23.2985 39.0156 23.0311 38.4427C22.7637 37.8698 22.7255 37.2778 22.9165 36.6666C23.1075 36.0555 23.4803 35.6064 24.0348 35.3191C24.5879 35.0335 25.17 34.9861 25.7811 35.1771L28.1873 35.9791C28.8366 36.1701 29.5723 36.3229 30.3942 36.4375C31.2146 36.5521 32.3314 36.6285 33.7446 36.6666H34.3748C34.3748 36.2465 34.2511 35.8455 34.0036 35.4635C33.7546 35.0816 33.4582 34.8333 33.1144 34.7187L19.7082 29.7916H16.0415V42.3958L31.9686 46.75ZM30.7655 51.2187L16.0415 47.0937C15.7359 48.0868 15.1348 48.8889 14.238 49.5C13.3396 50.1111 12.413 50.4166 11.4582 50.4166H6.87484C5.61442 50.4166 4.53581 49.9682 3.639 49.0714C2.74067 48.1731 2.2915 47.0937 2.2915 45.8333V29.7916C2.2915 28.5312 2.74067 27.4519 3.639 26.5535C4.53581 25.6567 5.61442 25.2083 6.87484 25.2083H19.7082C19.9755 25.2083 20.2429 25.2366 20.5103 25.2931C20.7776 25.3512 21.0259 25.4184 21.255 25.4948L34.7186 30.4791C35.979 30.9375 37.0011 31.7396 37.7848 32.8854C38.5671 34.0312 38.9582 35.2916 38.9582 36.6666H43.5415C45.4512 36.6666 47.0745 37.2969 48.4113 38.5573C49.7481 39.8177 50.4165 41.4791 50.4165 43.5416C50.4165 44.3819 50.1965 45.0412 49.7565 45.5194C49.318 45.996 48.6405 46.3871 47.7238 46.6927L33.4009 51.1614C32.9807 51.3142 32.5415 51.3906 32.0832 51.3906C31.6248 51.3906 31.1856 51.3333 30.7655 51.2187ZM6.87484 45.8333H11.4582V29.7916H6.87484V45.8333Z" fill="white"/>
</svg>
