<svg width="228" height="228" viewBox="0 0 228 228" fill="none" xmlns="http://www.w3.org/2000/svg">
<g id="fluent:arrow-growth-24-regular">
<path id="Vector" d="M159.116 19H202.379L203.329 19.133L204.269 19.399L204.839 19.646C205.599 19.969 206.293 20.4535 206.92 21.071L207.3 21.489L207.718 22.0305L208.231 22.8855L208.601 23.7405L208.782 24.3485L208.915 24.9565L209 25.859V68.913C209 70.7182 208.314 72.4559 207.082 73.775C205.849 75.0941 204.162 75.8962 202.361 76.0192C200.56 76.1423 198.779 75.5771 197.379 74.4379C195.979 73.2987 195.063 71.6704 194.817 69.882L194.75 68.913V43.3105L133.57 104.49C132.364 105.697 130.765 106.431 129.063 106.558C127.361 106.685 125.671 106.198 124.298 105.184L123.5 104.5L94.7153 76.855L40.6603 130.901C39.389 132.175 37.6821 132.922 35.883 132.989C34.0838 133.057 32.3258 132.441 30.9623 131.265C29.5988 130.089 28.731 128.441 28.5333 126.652C28.3357 124.862 28.8228 123.064 29.8968 121.619L30.5903 120.821L89.6803 61.731C90.8879 60.5258 92.4879 59.7938 94.1894 59.6683C95.8909 59.5428 97.5809 60.032 98.9523 61.047L99.7503 61.731L128.535 89.376L184.661 33.25H159.106C157.386 33.2476 155.725 32.6231 154.429 31.4916C153.134 30.3601 152.291 28.7981 152.057 27.094L151.991 26.125C151.991 24.4032 152.614 22.7398 153.746 21.4422C154.878 20.1446 156.441 19.3007 158.147 19.0665L159.116 19ZM35.6253 161.5C37.515 161.5 39.3272 162.251 40.6634 163.587C41.9996 164.923 42.7503 166.735 42.7503 168.625V201.875C42.7503 203.765 41.9996 205.577 40.6634 206.913C39.3272 208.249 37.515 209 35.6253 209C33.7356 209 31.9234 208.249 30.5872 206.913C29.251 205.577 28.5003 203.765 28.5003 201.875V168.625C28.5003 166.735 29.251 164.923 30.5872 163.587C31.9234 162.251 33.7356 161.5 35.6253 161.5ZM90.2503 130.625C90.2503 128.735 89.4996 126.923 88.1634 125.587C86.8272 124.251 85.015 123.5 83.1253 123.5C81.2356 123.5 79.4234 124.251 78.0872 125.587C76.751 126.923 76.0003 128.735 76.0003 130.625V201.875C76.0003 203.765 76.751 205.577 78.0872 206.913C79.4234 208.249 81.2356 209 83.1253 209C85.015 209 86.8272 208.249 88.1634 206.913C89.4996 205.577 90.2503 203.765 90.2503 201.875V130.625ZM130.625 142.5C132.515 142.5 134.327 143.251 135.663 144.587C137 145.923 137.75 147.735 137.75 149.625V201.875C137.75 203.765 137 205.577 135.663 206.913C134.327 208.249 132.515 209 130.625 209C128.736 209 126.923 208.249 125.587 206.913C124.251 205.577 123.5 203.765 123.5 201.875V149.625C123.5 147.735 124.251 145.923 125.587 144.587C126.923 143.251 128.736 142.5 130.625 142.5ZM185.25 102.125C185.25 100.235 184.5 98.4231 183.163 97.0869C181.827 95.7507 180.015 95 178.125 95C176.236 95 174.423 95.7507 173.087 97.0869C171.751 98.4231 171 100.235 171 102.125V201.875C171 203.765 171.751 205.577 173.087 206.913C174.423 208.249 176.236 209 178.125 209C180.015 209 181.827 208.249 183.163 206.913C184.5 205.577 185.25 203.765 185.25 201.875V102.125Z" fill="#545454"/>
</g>
</svg>
