<svg width="228" height="228" viewBox="0 0 228 228" fill="none" xmlns="http://www.w3.org/2000/svg">
<g id="solar:health-outline">
<g id="Group">
<path id="Vector" d="M163.875 66.5C163.875 64.6103 163.124 62.7981 161.788 61.4619C160.452 60.1257 158.64 59.375 156.75 59.375C154.86 59.375 153.048 60.1257 151.712 61.4619C150.376 62.7981 149.625 64.6103 149.625 66.5V78.375H137.75C135.86 78.375 134.048 79.1257 132.712 80.4619C131.376 81.7981 130.625 83.6103 130.625 85.5C130.625 87.3897 131.376 89.2019 132.712 90.5381C134.048 91.8743 135.86 92.625 137.75 92.625H149.625V104.5C149.625 106.39 150.376 108.202 151.712 109.538C153.048 110.874 154.86 111.625 156.75 111.625C158.64 111.625 160.452 110.874 161.788 109.538C163.124 108.202 163.875 106.39 163.875 104.5V92.625H175.75C177.64 92.625 179.452 91.8743 180.788 90.5381C182.124 89.2019 182.875 87.3897 182.875 85.5C182.875 83.6103 182.124 81.7981 180.788 80.4619C179.452 79.1257 177.64 78.375 175.75 78.375H163.875V66.5Z" fill="#474747"/>
<path id="Vector_2" fill-rule="evenodd" clip-rule="evenodd" d="M216.125 88.521C216.125 56.924 202.046 33.345 180.12 24.7665C159.837 16.815 135.489 22.762 114 42.8735C92.511 22.762 68.1625 16.815 47.88 24.7665C25.954 33.345 11.875 56.924 11.875 88.5115C11.875 108.642 22.61 128.44 35.9765 145.483C49.4855 162.706 66.4715 178.125 80.6455 189.63L81.9185 190.674C93.3185 199.937 101.564 206.634 114 206.634C126.445 206.634 134.672 199.937 146.081 190.674L147.354 189.63C161.529 178.134 178.514 162.706 192.023 145.483C205.39 128.44 216.125 108.642 216.125 88.521ZM119.206 57.8265C139.27 36.366 160.065 32.2145 174.933 38.0285C189.829 43.8615 201.875 60.9235 201.875 88.521C201.875 103.826 193.515 120.479 180.804 136.686C168.226 152.741 152.152 167.39 138.377 178.572C125.144 189.307 120.868 192.375 114 192.375C107.132 192.375 102.856 189.306 89.623 178.562C75.848 167.39 59.774 152.732 47.196 136.696C34.4755 120.479 26.125 103.826 26.125 88.521C26.125 60.9235 38.171 43.871 53.067 38.0285C67.9345 32.2145 88.73 36.366 108.794 57.8265C109.461 58.5399 110.267 59.1086 111.162 59.4975C112.058 59.8864 113.024 60.087 114 60.087C114.976 60.087 115.942 59.8864 116.838 59.4975C117.733 59.1086 118.539 58.5399 119.206 57.8265Z" fill="#474747"/>
</g>
</g>
</svg>
