<svg width="25" height="25" viewBox="0 0 25 25" fill="none" xmlns="http://www.w3.org/2000/svg">
<g id="heroicons-solid:library">
<path id="Vector" fill-rule="evenodd" clip-rule="evenodd" d="M13.12 2.66496C12.9312 2.5571 12.7175 2.50037 12.5 2.50037C12.2825 2.50037 12.0688 2.5571 11.88 2.66496L3.13 7.66496C2.89084 7.80178 2.70358 8.01379 2.59735 8.26802C2.49112 8.52224 2.47186 8.80445 2.54257 9.07075C2.61328 9.33706 2.77 9.57254 2.98835 9.74058C3.20671 9.90862 3.47447 9.99981 3.75 9.99996V18.75C3.41848 18.75 3.10054 18.8817 2.86612 19.1161C2.6317 19.3505 2.5 19.6684 2.5 20C2.5 20.3315 2.6317 20.6494 2.86612 20.8838C3.10054 21.1183 3.41848 21.25 3.75 21.25H21.25C21.5815 21.25 21.8995 21.1183 22.1339 20.8838C22.3683 20.6494 22.5 20.3315 22.5 20C22.5 19.6684 22.3683 19.3505 22.1339 19.1161C21.8995 18.8817 21.5815 18.75 21.25 18.75V9.99996C21.5255 9.99981 21.7933 9.90862 22.0116 9.74058C22.23 9.57254 22.3867 9.33706 22.4574 9.07075C22.5281 8.80445 22.5089 8.52224 22.4026 8.26802C22.2964 8.01379 22.1092 7.80178 21.87 7.66496L13.12 2.66496ZM7.5 11.25C7.16848 11.25 6.85054 11.3817 6.61612 11.6161C6.3817 11.8505 6.25 12.1684 6.25 12.5V16.25C6.25 16.5815 6.3817 16.8994 6.61612 17.1338C6.85054 17.3683 7.16848 17.5 7.5 17.5C7.83152 17.5 8.14946 17.3683 8.38388 17.1338C8.6183 16.8994 8.75 16.5815 8.75 16.25V12.5C8.75 12.1684 8.6183 11.8505 8.38388 11.6161C8.14946 11.3817 7.83152 11.25 7.5 11.25ZM11.25 12.5C11.25 12.1684 11.3817 11.8505 11.6161 11.6161C11.8505 11.3817 12.1685 11.25 12.5 11.25C12.8315 11.25 13.1495 11.3817 13.3839 11.6161C13.6183 11.8505 13.75 12.1684 13.75 12.5V16.25C13.75 16.5815 13.6183 16.8994 13.3839 17.1338C13.1495 17.3683 12.8315 17.5 12.5 17.5C12.1685 17.5 11.8505 17.3683 11.6161 17.1338C11.3817 16.8994 11.25 16.5815 11.25 16.25V12.5ZM17.5 11.25C17.1685 11.25 16.8505 11.3817 16.6161 11.6161C16.3817 11.8505 16.25 12.1684 16.25 12.5V16.25C16.25 16.5815 16.3817 16.8994 16.6161 17.1338C16.8505 17.3683 17.1685 17.5 17.5 17.5C17.8315 17.5 18.1495 17.3683 18.3839 17.1338C18.6183 16.8994 18.75 16.5815 18.75 16.25V12.5C18.75 12.1684 18.6183 11.8505 18.3839 11.6161C18.1495 11.3817 17.8315 11.25 17.5 11.25Z" fill="#545454"/>
</g>
</svg>
