<svg width="55" height="55" viewBox="0 0 55 55" fill="none" xmlns="http://www.w3.org/2000/svg">
<path d="M37.4918 32.0833C37.6752 30.5708 37.8127 29.0583 37.8127 27.5C37.8127 25.9417 37.6752 24.4292 37.4918 22.9167H45.2377C45.6043 24.3833 45.8335 25.9188 45.8335 27.5C45.8335 29.0813 45.6043 30.6167 45.2377 32.0833M33.4356 44.825C34.8106 42.2813 35.8647 39.5313 36.5981 36.6667H43.3585C41.1383 40.4898 37.6158 43.3858 33.4356 44.825ZM32.8627 32.0833H22.1377C21.9085 30.5708 21.771 29.0583 21.771 27.5C21.771 25.9417 21.9085 24.4063 22.1377 22.9167H32.8627C33.0689 24.4063 33.2293 25.9417 33.2293 27.5C33.2293 29.0583 33.0689 30.5708 32.8627 32.0833ZM27.5002 45.7417C25.5981 42.9917 24.0627 39.9438 23.1231 36.6667H31.8772C30.9377 39.9438 29.4022 42.9917 27.5002 45.7417ZM18.3335 18.3333H11.6418C13.8392 14.4999 17.3591 11.5992 21.5418 10.175C20.1668 12.7188 19.1356 15.4688 18.3335 18.3333ZM11.6418 36.6667H18.3335C19.1356 39.5313 20.1668 42.2813 21.5418 44.825C17.3678 43.3851 13.8529 40.4885 11.6418 36.6667ZM9.76266 32.0833C9.396 30.6167 9.16683 29.0813 9.16683 27.5C9.16683 25.9188 9.396 24.3833 9.76266 22.9167H17.5085C17.3252 24.4292 17.1877 25.9417 17.1877 27.5C17.1877 29.0583 17.3252 30.5708 17.5085 32.0833M27.5002 9.23542C29.4022 11.9854 30.9377 15.0563 31.8772 18.3333H23.1231C24.0627 15.0563 25.5981 11.9854 27.5002 9.23542ZM43.3585 18.3333H36.5981C35.8808 15.495 34.8188 12.7552 33.4356 10.175C37.6522 11.6188 41.1585 14.5292 43.3585 18.3333ZM27.5002 4.58334C14.8272 4.58334 4.5835 14.8958 4.5835 27.5C4.5835 33.5779 6.99792 39.4068 11.2956 43.7045C13.4236 45.8325 15.95 47.5206 18.7303 48.6722C21.5107 49.8239 24.4907 50.4167 27.5002 50.4167C33.578 50.4167 39.407 48.0022 43.7047 43.7045C48.0024 39.4068 50.4168 33.5779 50.4168 27.5C50.4168 24.4905 49.8241 21.5106 48.6724 18.7302C47.5207 15.9498 45.8327 13.4235 43.7047 11.2955C41.5767 9.16746 39.0504 7.47943 36.27 6.32776C33.4896 5.17609 30.5096 4.58334 27.5002 4.58334Z" fill="white"/>
</svg>
