<svg width="46" height="46" viewBox="0 0 46 46" fill="none" xmlns="http://www.w3.org/2000/svg">
<path d="M31.2249 27C31.3749 25.7625 31.4874 24.525 31.4874 23.25C31.4874 21.975 31.3749 20.7375 31.2249 19.5H37.5624C37.8624 20.7 38.0499 21.9563 38.0499 23.25C38.0499 24.5437 37.8624 25.8 37.5624 27M27.9062 37.425C29.0312 35.3437 29.8937 33.0938 30.4937 30.75H36.0249C34.2084 33.878 31.3264 36.2475 27.9062 37.425M27.4374 27H18.6624C18.4749 25.7625 18.3624 24.525 18.3624 23.25C18.3624 21.975 18.4749 20.7187 18.6624 19.5H27.4374C27.6062 20.7187 27.7374 21.975 27.7374 23.25C27.7374 24.525 27.6062 25.7625 27.4374 27ZM23.0499 38.175C21.4937 35.925 20.2374 33.4312 19.4687 30.75H26.6312C25.8624 33.4312 24.6062 35.925 23.0499 38.175ZM15.5499 15.75H10.0749C11.8728 12.6135 14.7527 10.2403 18.1749 9.075C17.0499 11.1563 16.2062 13.4062 15.5499 15.75ZM10.0749 30.75H15.5499C16.2062 33.0938 17.0499 35.3437 18.1749 37.425C14.7598 36.2469 11.884 33.877 10.0749 30.75M8.53743 27C8.23743 25.8 8.04993 24.5437 8.04993 23.25C8.04993 21.9563 8.23743 20.7 8.53743 19.5H14.8749C14.7249 20.7375 14.6124 21.975 14.6124 23.25C14.6124 24.525 14.7249 25.7625 14.8749 27M23.0499 8.30625C24.6062 10.5563 25.8624 13.0688 26.6312 15.75H19.4687C20.2374 13.0688 21.4937 10.5563 23.0499 8.30625M36.0249 15.75H30.4937C29.9068 13.4277 29.0379 11.1861 27.9062 9.075C31.3562 10.2563 34.2249 12.6375 36.0249 15.75ZM23.0499 4.5C12.6812 4.5 4.29993 12.9375 4.29993 23.25C4.29993 28.2228 6.27537 32.9919 9.79167 36.5083C11.5328 38.2494 13.5998 39.6305 15.8746 40.5727C18.1495 41.515 20.5876 42 23.0499 42C28.0227 42 32.7919 40.0246 36.3082 36.5083C39.8245 32.9919 41.7999 28.2228 41.7999 23.25C41.7999 20.7877 41.3149 18.3495 40.3727 16.0747C39.4304 13.7998 38.0493 11.7328 36.3082 9.99175C34.5671 8.25065 32.5001 6.86953 30.2252 5.92726C27.9504 4.98498 25.5122 4.5 23.0499 4.5V4.5Z" fill="#474747"/>
</svg>
