<svg width="26" height="26" viewBox="0 0 26 26" fill="none" xmlns="http://www.w3.org/2000/svg">
<g id="mingcute:microscope-fill" clip-path="url(#clip0_1712_2878)">
<g id="Group">
<path id="Vector" fill-rule="evenodd" clip-rule="evenodd" d="M16.9886 3.55549C17.3722 3.1722 17.8855 2.94665 18.4272 2.92338C18.9689 2.90012 19.4997 3.08082 19.9147 3.42982L20.0523 3.55549L20.8182 4.32249C21.2013 4.70583 21.4269 5.21886 21.4504 5.76034C21.4738 6.30182 21.2935 6.83243 20.9449 7.24749L20.8193 7.38615L20.0523 8.15207C19.9862 8.2179 19.916 8.27942 19.8421 8.33624C19.9369 8.67606 19.9473 9.03389 19.8723 9.37864C19.7973 9.72338 19.6393 10.0446 19.412 10.3144L19.2864 10.4498L18.2139 11.5223C18.9598 12.1825 19.5567 12.9937 19.9652 13.9022C20.3737 14.8106 20.5843 15.7956 20.5831 16.7917C20.5831 18.5727 19.9223 20.1987 18.8324 21.4392L18.6223 21.6667H21.6664C21.9426 21.667 22.2081 21.7727 22.4089 21.9622C22.6097 22.1518 22.7305 22.4109 22.7467 22.6865C22.7629 22.9621 22.6732 23.2336 22.496 23.4453C22.3188 23.657 22.0674 23.7931 21.7932 23.8257L21.6664 23.8333H4.33311C4.05699 23.833 3.79141 23.7273 3.59063 23.5377C3.38985 23.3482 3.26902 23.0891 3.25284 22.8135C3.23666 22.5378 3.32634 22.2664 3.50356 22.0547C3.68079 21.8429 3.93217 21.7068 4.20636 21.6742L4.33311 21.6667H13.5414C14.5195 21.6668 15.475 21.3727 16.2837 20.8227C17.0924 20.2726 17.717 19.4921 18.0762 18.5824C18.4355 17.6727 18.5128 16.676 18.2982 15.7218C18.0836 14.7676 17.5869 13.9 16.8727 13.2318L16.6777 13.0585L13.1579 16.5793C12.7745 16.9623 12.2614 17.1877 11.7199 17.2109C11.1784 17.2342 10.6479 17.0537 10.2329 16.705L10.0943 16.5782L7.79653 14.2805C7.41308 13.8971 7.18734 13.3838 7.16387 12.8421C7.1404 12.3004 7.32092 11.7695 7.66978 11.3544L7.79653 11.2168L13.9249 5.0884C14.1963 4.81696 14.5349 4.62248 14.906 4.52483C15.2772 4.42718 15.6677 4.42988 16.0374 4.53265L16.1263 4.42432L16.2227 4.32249L16.9886 3.55549ZM7.03061 15.0475L9.32728 17.3452C9.43081 17.4451 9.51343 17.5646 9.5703 17.6967C9.62716 17.8288 9.65715 17.971 9.6585 18.1148C9.65985 18.2587 9.63254 18.4013 9.57816 18.5345C9.52379 18.6677 9.44343 18.7887 9.34179 18.8905C9.24014 18.9923 9.11924 19.0728 8.98615 19.1274C8.85305 19.1819 8.71042 19.2094 8.56657 19.2083C8.42273 19.2071 8.28055 19.1774 8.14834 19.1207C8.01613 19.064 7.89653 18.9815 7.79653 18.8782L5.49769 16.5793C5.39711 16.4787 5.31734 16.3592 5.26293 16.2277C5.20853 16.0962 5.18055 15.9553 5.1806 15.813C5.18065 15.6707 5.20873 15.5298 5.26323 15.3984C5.31773 15.2669 5.39758 15.1475 5.49823 15.0469C5.59889 14.9464 5.71837 14.8666 5.84985 14.8122C5.98133 14.7578 6.12224 14.7298 6.26453 14.7298C6.40683 14.7299 6.54772 14.758 6.67916 14.8125C6.81061 14.867 6.93003 14.9468 7.03061 15.0475ZM18.5204 5.08949L17.7545 5.8554L18.5204 6.62132L19.2864 5.8554L18.5204 5.08949Z" fill="#545454"/>
</g>
</g>
<defs>
<clipPath id="clip0_1712_2878">
<rect width="26" height="26" fill="white"/>
</clipPath>
</defs>
</svg>
