<svg width="63" height="50" viewBox="0 0 63 50" fill="none" xmlns="http://www.w3.org/2000/svg">
<g id="fa6-solid:money-bill-transfer" clip-path="url(#clip0_2968_4460)">
<path id="Vector" d="M52.4961 4.00416C51.5781 3.08619 51.5781 1.60181 52.4961 0.693608C53.4141 -0.214595 54.8984 -0.22436 55.8066 0.693608L62.0566 6.94361C62.4961 7.38306 62.7402 7.97876 62.7402 8.60376C62.7402 9.22876 62.4961 9.82447 62.0566 10.2639L55.8066 16.5139C54.8887 17.4319 53.4043 17.4319 52.4961 16.5139C51.5879 15.596 51.5781 14.1116 52.4961 13.2034L54.7422 10.9573L37.75 10.9377C36.4512 10.9377 35.4062 9.89283 35.4062 8.594C35.4062 7.29517 36.4512 6.25025 37.75 6.25025H54.7519L52.4961 4.00416ZM10.5039 36.8167L8.25781 39.0627H25.25C26.5488 39.0627 27.5938 40.1077 27.5938 41.4065C27.5938 42.7053 26.5488 43.7502 25.25 43.7502H8.24805L10.4941 45.9963C11.4121 46.9143 11.4121 48.3987 10.4941 49.3069C9.57617 50.2151 8.0918 50.2249 7.18359 49.3069L0.933594 43.0667C0.494141 42.6272 0.25 42.0315 0.25 41.4065C0.25 40.7815 0.494141 40.1858 0.933594 39.7463L7.18359 33.4963C8.10156 32.5784 9.58594 32.5784 10.4941 33.4963C11.4023 34.4143 11.4121 35.8987 10.4941 36.8069L10.5039 36.8167ZM9.625 6.25025H33.248C32.8867 6.95337 32.6719 7.74439 32.6719 8.594C32.6719 11.3967 34.9473 13.6721 37.75 13.6721H49.2148C48.8242 15.3323 49.2734 17.1389 50.5625 18.4377C52.5449 20.4202 55.7578 20.4202 57.7402 18.4377L59.625 16.553V37.5002C59.625 40.9475 56.8223 43.7502 53.375 43.7502H29.752C30.1133 43.0471 30.3281 42.2561 30.3281 41.4065C30.3281 38.6038 28.0527 36.3284 25.25 36.3284H13.7852C14.1758 34.6682 13.7266 32.8616 12.4375 31.5627C10.4551 29.5803 7.24219 29.5803 5.25977 31.5627L3.375 33.4475V12.5002C3.375 9.05298 6.17773 6.25025 9.625 6.25025ZM15.875 12.5002H9.625V18.7502C13.0723 18.7502 15.875 15.9475 15.875 12.5002ZM53.375 31.2502C49.9277 31.2502 47.125 34.053 47.125 37.5002H53.375V31.2502ZM31.5 34.3752C36.6758 34.3752 40.875 30.176 40.875 25.0002C40.875 19.8245 36.6758 15.6252 31.5 15.6252C26.3242 15.6252 22.125 19.8245 22.125 25.0002C22.125 30.176 26.3242 34.3752 31.5 34.3752Z" fill="#152344"/>
</g>
<defs>
<clipPath id="clip0_2968_4460">
<rect width="62.5" height="50" fill="white" transform="translate(0.25)"/>
</clipPath>
</defs>
</svg>
