<svg width="26" height="26" viewBox="0 0 26 26" fill="none" xmlns="http://www.w3.org/2000/svg">
<g id="ph:pen-nib-fill">
<path id="Vector" d="M23.899 9.07566L16.9237 2.10035C16.7728 1.94942 16.5936 1.82969 16.3964 1.748C16.1992 1.66631 15.9879 1.62427 15.7745 1.62427C15.561 1.62427 15.3497 1.66631 15.1525 1.748C14.9553 1.82969 14.7762 1.94942 14.6253 2.10035L11.7369 4.98879L5.84623 7.19879C5.57856 7.29839 5.34187 7.46677 5.16 7.68697C4.97814 7.90717 4.85752 8.17142 4.81029 8.45308L2.70084 21.1078C2.6867 21.1926 2.69986 21.2798 2.73842 21.3567C2.77698 21.4336 2.83896 21.4962 2.91542 21.5357C2.99188 21.5751 3.07888 21.5892 3.16388 21.576C3.24888 21.5628 3.32751 21.523 3.38842 21.4622L9.17748 15.6732C8.99406 15.2916 8.91387 14.8685 8.9449 14.4463C8.98267 13.9268 9.18584 13.4331 9.52463 13.0375C9.86343 12.6419 10.32 12.3652 10.8275 12.248C11.335 12.1308 11.8667 12.1793 12.3446 12.3863C12.8226 12.5932 13.2217 12.9479 13.4834 13.3982C13.7451 13.8485 13.8557 14.3708 13.799 14.8886C13.7422 15.4063 13.5211 15.8923 13.1681 16.2752C12.8151 16.6581 12.3486 16.9179 11.8372 17.0165C11.3258 17.115 10.7962 17.0472 10.3262 16.8229L4.53709 22.6119C4.47635 22.6728 4.43651 22.7514 4.42332 22.8365C4.41012 22.9215 4.42425 23.0085 4.46367 23.0849C4.50308 23.1614 4.56575 23.2234 4.64265 23.2619C4.71954 23.3005 4.80669 23.3136 4.89154 23.2995L17.5472 21.19C17.8285 21.1432 18.0924 21.0232 18.3126 20.842C18.5327 20.6609 18.7014 20.4251 18.8015 20.1582L21.0126 14.2604L23.899 11.375C24.0499 11.2241 24.1696 11.045 24.2513 10.8478C24.333 10.6506 24.375 10.4393 24.375 10.2259C24.375 10.0124 24.333 9.80109 24.2513 9.60391C24.1696 9.40673 24.0499 9.22758 23.899 9.07668V9.07566ZM20.3128 12.6629L13.3375 5.68754L15.775 3.25004L22.7503 10.2254L20.3128 12.6629Z" fill="#545454"/>
</g>
</svg>
