<svg width="14" height="14" viewBox="0 0 14 14" fill="none" xmlns="http://www.w3.org/2000/svg">
<g id="uil:message">
<path id="Vector" d="M11.8649 5.43667L3.69823 1.35333C3.37594 1.19292 3.01201 1.13581 2.65607 1.1898C2.30013 1.24378 1.9695 1.40622 1.70926 1.65498C1.44902 1.90374 1.27183 2.22671 1.20185 2.57986C1.13188 2.933 1.17252 3.29913 1.31823 3.62833L2.71823 6.76083C2.75 6.83657 2.76636 6.91787 2.76636 7C2.76636 7.08213 2.75 7.16343 2.71823 7.23917L1.31823 10.3717C1.19964 10.6381 1.14951 10.9299 1.17239 11.2206C1.19527 11.5113 1.29043 11.7917 1.44924 12.0363C1.60805 12.2809 1.82546 12.4819 2.08171 12.6211C2.33797 12.7603 2.62495 12.8333 2.91657 12.8333C3.1897 12.8306 3.45877 12.7668 3.70407 12.6467L11.8707 8.56333C12.1604 8.41761 12.4039 8.19426 12.5741 7.91821C12.7442 7.64216 12.8343 7.32427 12.8343 7C12.8343 6.67573 12.7442 6.35784 12.5741 6.08179C12.4039 5.80574 12.1604 5.58239 11.8707 5.43667H11.8649ZM11.3457 7.51917L3.17907 11.6025C3.07183 11.654 2.95141 11.6715 2.83396 11.6526C2.71651 11.6337 2.60764 11.5793 2.52195 11.4968C2.43626 11.4143 2.37785 11.3076 2.35454 11.1909C2.33124 11.0743 2.34416 10.9533 2.39157 10.8442L3.78573 7.71167C3.80378 7.66984 3.81936 7.62699 3.8324 7.58333H7.85157C8.00628 7.58333 8.15465 7.52187 8.26405 7.41248C8.37344 7.30308 8.4349 7.15471 8.4349 7C8.4349 6.84529 8.37344 6.69692 8.26405 6.58752C8.15465 6.47812 8.00628 6.41667 7.85157 6.41667H3.8324C3.81936 6.37301 3.80378 6.33016 3.78573 6.28833L2.39157 3.15583C2.34416 3.04673 2.33124 2.92574 2.35454 2.80908C2.37785 2.69243 2.43626 2.58568 2.52195 2.50317C2.60764 2.42065 2.71651 2.36631 2.83396 2.34742C2.95141 2.32853 3.07183 2.34601 3.17907 2.3975L11.3457 6.48083C11.4413 6.52979 11.5215 6.60416 11.5775 6.69576C11.6335 6.78736 11.6631 6.89264 11.6631 7C11.6631 7.10736 11.6335 7.21264 11.5775 7.30424C11.5215 7.39584 11.4413 7.47021 11.3457 7.51917Z" fill="#0089FF"/>
</g>
</svg>
