<svg width="51" height="50" viewBox="0 0 51 50" fill="none" xmlns="http://www.w3.org/2000/svg">
<path d="M41.0145 11.1354C40.5965 9.71789 39.7289 8.47475 38.5425 7.5935C37.3561 6.71226 35.9153 6.24072 34.4375 6.25C32.7247 6.25153 31.0744 6.89368 29.8111 8.05021C28.5478 9.20675 27.7628 10.794 27.6104 12.5H23.3916C23.2372 10.7922 22.4495 9.204 21.1835 8.04748C19.9175 6.89096 18.2647 6.24979 16.55 6.25C15.0741 6.24275 13.6358 6.71529 12.4518 7.59644C11.2678 8.47758 10.4022 9.7196 9.98538 11.1354L4.75413 28.5687C4.69682 28.7629 4.66736 28.9642 4.66663 29.1667V31.25C4.66994 34.012 5.76875 36.6599 7.72199 38.6128C9.67523 40.5656 12.3234 41.6639 15.0854 41.6667C17.1097 41.6632 19.0892 41.0703 20.7822 39.9604C22.4751 38.8506 23.8082 37.2717 24.6187 35.4167H26.3812C27.1917 37.2717 28.5248 38.8506 30.2177 39.9604C31.9107 41.0703 33.8902 41.6632 35.9145 41.6667C38.6769 41.6639 41.3254 40.5653 43.2787 38.612C45.232 36.6587 46.3305 34.0103 46.3333 31.2479V29.1667C46.3333 28.9625 46.302 28.7625 46.2458 28.5687L41.0145 11.1354ZM15.0854 37.5C13.4283 37.4978 11.8396 36.8387 10.6677 35.6671C9.4957 34.4955 8.83605 32.9071 8.83329 31.25C8.83329 31.0917 8.86871 30.9437 8.87913 30.7875C8.99311 29.2183 9.69568 27.7501 10.8461 26.677C11.9966 25.6038 13.51 25.0048 15.0833 25C16.7409 25 18.3306 25.6585 19.5027 26.8306C20.6748 28.0027 21.3333 29.5924 21.3333 31.25V31.2687C21.3261 32.9221 20.6651 34.5054 19.4944 35.6729C18.3238 36.8404 16.7387 37.4973 15.0854 37.5ZM35.9145 37.5C34.2612 37.4973 32.6761 36.8404 31.5055 35.6729C30.3349 34.5054 29.6738 32.9221 29.6666 31.2687V31.25C29.6665 30.4292 29.828 29.6165 30.142 28.8581C30.4559 28.0998 30.9162 27.4107 31.4965 26.8303C32.6684 25.658 34.258 24.9992 35.9156 24.999C37.5732 24.9987 39.163 25.6569 40.3353 26.8288C41.5076 28.0007 42.1664 29.5903 42.1666 31.2479C42.1644 32.9054 41.505 34.4944 40.333 35.6664C39.161 36.8384 37.572 37.4978 35.9145 37.5Z" fill="#062644"/>
</svg>
