<svg width="50" height="50" viewBox="0 0 50 50" fill="none" xmlns="http://www.w3.org/2000/svg">
<path d="M8.33331 44.375C7.49998 44.6875 6.76248 44.5222 6.12081 43.8792C5.47775 43.2375 5.31248 42.5 5.62498 41.6667L12.3437 22.8646C12.8298 21.4062 13.8194 20.5035 15.3125 20.1562C16.8055 19.809 18.1076 20.191 19.2187 21.3021L28.6979 30.7812C29.809 31.8924 30.1909 33.1944 29.8437 34.6875C29.4965 36.1806 28.5937 37.1701 27.1354 37.6562L8.33331 44.375ZM11.0416 38.9583L25.7291 33.75L16.25 24.2708L11.0416 38.9583ZM29.2187 25.0521C28.9062 24.7396 28.75 24.375 28.75 23.9583C28.75 23.5417 28.9062 23.1771 29.2187 22.8646L39.7916 12.2917C40.9028 11.1806 42.2396 10.625 43.8021 10.625C45.3646 10.625 46.7014 11.1806 47.8125 12.2917L48.0208 12.5C48.2986 12.7778 48.4375 13.125 48.4375 13.5417C48.4375 13.9583 48.2812 14.3229 47.9687 14.6354C47.6562 14.9479 47.2916 15.1042 46.875 15.1042C46.4583 15.1042 46.0937 14.9479 45.7812 14.6354L45.625 14.4792C45.1389 13.9931 44.5312 13.75 43.8021 13.75C43.0729 13.75 42.4653 13.9931 41.9791 14.4792L31.3541 25.1042C31.0764 25.3819 30.7291 25.5208 30.3125 25.5208C29.8958 25.5208 29.5312 25.3646 29.2187 25.0521ZM20.8854 16.7187C20.5729 16.4062 20.4166 16.0417 20.4166 15.625C20.4166 15.2083 20.5729 14.8438 20.8854 14.5312L21.0416 14.375C21.5278 13.8889 21.7708 13.2986 21.7708 12.6042C21.7708 11.9097 21.5278 11.3194 21.0416 10.8333L20.7291 10.5208C20.4514 10.2431 20.3125 9.89583 20.3125 9.47917C20.3125 9.0625 20.4687 8.69792 20.7812 8.38542C21.0937 8.07292 21.4583 7.91667 21.875 7.91667C22.2916 7.91667 22.6562 8.07292 22.9687 8.38542L23.2291 8.64583C24.3403 9.75694 24.8958 11.0764 24.8958 12.6042C24.8958 14.1319 24.3403 15.4514 23.2291 16.5625L23.0208 16.7708C22.743 17.0486 22.3958 17.1875 21.9791 17.1875C21.5625 17.1875 21.1979 17.0312 20.8854 16.7187ZM25.0521 20.8854C24.7396 20.5729 24.5833 20.2083 24.5833 19.7917C24.5833 19.375 24.7396 19.0104 25.0521 18.6979L31.4583 12.2917C31.9444 11.8056 32.1875 11.1979 32.1875 10.4688C32.1875 9.73958 31.9444 9.13194 31.4583 8.64583L29.1666 6.35417C28.8889 6.07639 28.75 5.72917 28.75 5.3125C28.75 4.89583 28.9062 4.53125 29.2187 4.21875C29.5312 3.90625 29.8958 3.75 30.3125 3.75C30.7291 3.75 31.0937 3.90625 31.4062 4.21875L33.6458 6.45833C34.7569 7.56944 35.3125 8.90625 35.3125 10.4688C35.3125 12.0312 34.7569 13.3681 33.6458 14.4792L27.1875 20.9375C26.9097 21.2153 26.5625 21.3542 26.1458 21.3542C25.7291 21.3542 25.3646 21.1979 25.0521 20.8854ZM33.3854 29.2187C33.0729 28.9062 32.9166 28.5417 32.9166 28.125C32.9166 27.7083 33.0729 27.3438 33.3854 27.0312L35.625 24.7917C36.7361 23.6806 38.0729 23.125 39.6354 23.125C41.1979 23.125 42.5347 23.6806 43.6458 24.7917L45.9375 27.0833C46.2153 27.3611 46.3541 27.7083 46.3541 28.125C46.3541 28.5417 46.1979 28.9062 45.8854 29.2187C45.5729 29.5312 45.2083 29.6875 44.7916 29.6875C44.375 29.6875 44.0104 29.5312 43.6979 29.2187L41.4583 26.9792C40.9722 26.4931 40.3646 26.25 39.6354 26.25C38.9062 26.25 38.2986 26.4931 37.8125 26.9792L35.5208 29.2708C35.243 29.5486 34.8958 29.6875 34.4791 29.6875C34.0625 29.6875 33.6979 29.5312 33.3854 29.2187Z" fill="#474747"/>
</svg>
