<svg width="25" height="25" viewBox="0 0 25 25" fill="none" xmlns="http://www.w3.org/2000/svg">
<g id="material-symbols:date-range-rounded">
<path id="Vector" d="M8.33333 14.5834C8.0382 14.5834 7.79063 14.4834 7.59063 14.2834C7.39063 14.0834 7.29097 13.8362 7.29167 13.5417C7.29167 13.2466 7.39167 12.999 7.59167 12.799C7.79167 12.599 8.03889 12.4993 8.33333 12.5C8.62847 12.5 8.87604 12.6 9.07604 12.8C9.27604 13 9.3757 13.2473 9.375 13.5417C9.375 13.8368 9.275 14.0844 9.075 14.2844C8.875 14.4844 8.62778 14.5841 8.33333 14.5834ZM12.5 14.5834C12.2049 14.5834 11.9573 14.4834 11.7573 14.2834C11.5573 14.0834 11.4576 13.8362 11.4583 13.5417C11.4583 13.2466 11.5583 12.999 11.7583 12.799C11.9583 12.599 12.2056 12.4993 12.5 12.5C12.7951 12.5 13.0427 12.6 13.2427 12.8C13.4427 13 13.5424 13.2473 13.5417 13.5417C13.5417 13.8368 13.4417 14.0844 13.2417 14.2844C13.0417 14.4844 12.7944 14.5841 12.5 14.5834ZM16.6667 14.5834C16.3715 14.5834 16.124 14.4834 15.924 14.2834C15.724 14.0834 15.6243 13.8362 15.625 13.5417C15.625 13.2466 15.725 12.999 15.925 12.799C16.125 12.599 16.3722 12.4993 16.6667 12.5C16.9618 12.5 17.2094 12.6 17.4094 12.8C17.6094 13 17.709 13.2473 17.7083 13.5417C17.7083 13.8368 17.6083 14.0844 17.4083 14.2844C17.2083 14.4844 16.9611 14.5841 16.6667 14.5834ZM5.20833 22.9167C4.63542 22.9167 4.14479 22.7125 3.73646 22.3042C3.32813 21.8959 3.12431 21.4056 3.125 20.8334V6.25004C3.125 5.67712 3.32917 5.1865 3.7375 4.77817C4.14584 4.36983 4.63611 4.16601 5.20833 4.16671H6.25V3.099C6.25 2.80386 6.35 2.5608 6.55 2.36983C6.75 2.17886 6.99722 2.08337 7.29167 2.08337C7.58681 2.08337 7.83438 2.18337 8.03438 2.38337C8.23438 2.58337 8.33403 2.8306 8.33333 3.12504V4.16671H16.6667V3.099C16.6667 2.80386 16.7667 2.5608 16.9667 2.36983C17.1667 2.17886 17.4139 2.08337 17.7083 2.08337C18.0035 2.08337 18.251 2.18337 18.451 2.38337C18.651 2.58337 18.7507 2.8306 18.75 3.12504V4.16671H19.7917C20.3646 4.16671 20.8552 4.37087 21.2635 4.77921C21.6719 5.18754 21.8757 5.67782 21.875 6.25004V20.8334C21.875 21.4063 21.6708 21.8969 21.2625 22.3052C20.8542 22.7136 20.3639 22.9174 19.7917 22.9167H5.20833ZM5.20833 20.8334H19.7917V10.4167H5.20833V20.8334Z" fill="#545454"/>
</g>
</svg>
