<svg width="228" height="228" viewBox="0 0 228 228" fill="none" xmlns="http://www.w3.org/2000/svg">
<g id="ph:handshake-thin">
<path id="Vector" d="M103.206 193.266C103.009 194.031 102.562 194.71 101.936 195.193C101.311 195.677 100.542 195.939 99.7509 195.937C99.4507 195.939 99.1516 195.903 98.8602 195.831L70.3602 188.706C69.9638 188.607 69.5872 188.442 69.2469 188.216L47.8719 173.966C47.4825 173.706 47.148 173.372 46.8875 172.983C46.627 172.594 46.4457 172.158 46.3539 171.699C46.2621 171.24 46.2616 170.767 46.3525 170.308C46.4433 169.849 46.6237 169.412 46.8834 169.023C47.4077 168.236 48.2231 167.69 49.1501 167.505C49.6091 167.413 50.0817 167.412 50.5409 167.503C51.0001 167.594 51.4369 167.775 51.8263 168.034L72.6848 181.946L100.641 188.919C101.096 189.036 101.522 189.24 101.897 189.522C102.272 189.803 102.588 190.156 102.826 190.56C103.065 190.964 103.221 191.411 103.286 191.875C103.351 192.339 103.324 192.812 103.206 193.266ZM221.455 107.098C221.017 108.429 220.319 109.66 219.402 110.72C218.485 111.779 217.366 112.646 216.111 113.27L194.504 124.082L145.039 173.547C144.599 173.974 144.057 174.281 143.464 174.437C142.871 174.593 142.248 174.593 141.655 174.438L84.6548 160.188C84.2181 160.082 83.8065 159.891 83.4435 159.627L33.7823 124.189L11.9085 113.243C10.6529 112.616 9.53314 111.747 8.61322 110.687C7.69331 109.627 6.99125 108.396 6.54712 107.064C6.103 105.732 5.92553 104.326 6.02482 102.926C6.12412 101.526 6.49826 100.159 7.12586 98.9039L29.249 54.6576C29.8764 53.402 30.745 52.2822 31.8051 51.3623C32.8653 50.4424 34.0963 49.7403 35.4279 49.2962C36.7594 48.8521 38.1654 48.6746 39.5655 48.7739C40.9657 48.8732 42.3325 49.2473 43.588 49.8749L64.4821 60.322L113.021 46.446C113.662 46.268 114.34 46.268 114.981 46.446L163.52 60.322L184.414 49.8749C185.669 49.2473 187.036 48.8732 188.436 48.7739C189.836 48.6746 191.242 48.8521 192.574 49.2962C193.905 49.7403 195.136 50.4424 196.197 51.3623C197.257 52.2822 198.125 53.402 198.753 54.6576L220.876 98.9128C221.508 100.166 221.885 101.533 221.984 102.934C222.083 104.334 221.903 105.74 221.455 107.071V107.098ZM15.088 106.875L34.0316 116.342L59.3432 65.7192L40.4085 56.2518C39.9904 56.0418 39.535 55.9163 39.0684 55.8823C38.6017 55.8483 38.1329 55.9066 37.6888 56.0538C37.2447 56.201 36.8339 56.4343 36.48 56.7403C36.126 57.0463 35.8358 57.419 35.6259 57.8371L13.5027 102.092C13.2928 102.51 13.1672 102.966 13.1332 103.432C13.0993 103.899 13.1575 104.368 13.3047 104.812C13.452 105.256 13.6852 105.667 13.9912 106.021C14.2972 106.375 14.6699 106.665 15.088 106.875ZM172.782 135.669L142.697 111.569C126.194 126.495 104.596 128.945 86.8902 117.634C85.5373 116.776 84.3945 115.625 83.5463 114.266C82.6981 112.907 82.1663 111.375 81.9901 109.783C81.814 108.19 81.998 106.579 82.5286 105.067C83.0592 103.556 83.9228 102.183 85.0555 101.05L125.757 61.5688C126.425 60.9205 127.32 60.5592 128.251 60.5624H138.44L114.001 53.5799L66.6107 67.1174L40.1769 119.994L87.0238 153.455L141.405 167.054L172.782 135.669ZM188.03 120.421L161.676 67.6874H129.694L90.0698 106.127C89.7008 106.497 89.4202 106.945 89.249 107.439C89.0778 107.932 89.0204 108.458 89.0812 108.977C89.138 109.517 89.3156 110.038 89.6008 110.5C89.886 110.963 90.2715 111.355 90.7288 111.649C103.153 119.584 122.613 121.837 139.971 104.346C140.591 103.722 141.42 103.35 142.298 103.3C143.176 103.251 144.041 103.528 144.727 104.078L177.868 130.619L188.03 120.421ZM214.49 102.092L192.376 57.8371C192.166 57.419 191.876 57.0463 191.522 56.7403C191.168 56.4343 190.757 56.201 190.313 56.0538C189.869 55.9066 189.4 55.8483 188.933 55.8823C188.467 55.9163 188.011 56.0418 187.593 56.2518L168.659 65.7192L193.97 116.342L212.914 106.875C213.332 106.665 213.705 106.375 214.011 106.021C214.316 105.667 214.55 105.256 214.697 104.812C214.844 104.368 214.902 103.899 214.868 103.432C214.835 102.966 214.709 102.51 214.499 102.092H214.49Z" fill="white"/>
<path id="Vector_2" d="M103.206 193.266C103.009 194.031 102.562 194.71 101.936 195.193C101.311 195.677 100.542 195.939 99.7509 195.937C99.4507 195.939 99.1516 195.903 98.8602 195.831L70.3602 188.706C69.9638 188.607 69.5872 188.442 69.2469 188.216L47.8719 173.966C47.4825 173.706 47.148 173.372 46.8875 172.983C46.627 172.594 46.4457 172.158 46.3539 171.699C46.2621 171.24 46.2616 170.767 46.3525 170.308C46.4433 169.849 46.6237 169.412 46.8834 169.023C47.4077 168.236 48.2231 167.69 49.1501 167.505C49.6091 167.413 50.0817 167.412 50.5409 167.503C51.0001 167.594 51.4369 167.775 51.8263 168.034L72.6848 181.946L100.641 188.919C101.096 189.036 101.522 189.24 101.897 189.522C102.272 189.803 102.588 190.156 102.826 190.56C103.065 190.964 103.221 191.411 103.286 191.875C103.351 192.339 103.324 192.812 103.206 193.266ZM221.455 107.098C221.017 108.429 220.319 109.66 219.402 110.72C218.485 111.779 217.366 112.646 216.111 113.27L194.504 124.082L145.039 173.547C144.599 173.974 144.057 174.281 143.464 174.437C142.871 174.593 142.248 174.593 141.655 174.438L84.6548 160.188C84.2181 160.082 83.8065 159.891 83.4435 159.627L33.7823 124.189L11.9085 113.243C10.6529 112.616 9.53314 111.747 8.61322 110.687C7.69331 109.627 6.99125 108.396 6.54712 107.064C6.103 105.732 5.92553 104.326 6.02482 102.926C6.12412 101.526 6.49826 100.159 7.12586 98.9039L29.249 54.6576C29.8764 53.402 30.745 52.2822 31.8051 51.3623C32.8653 50.4424 34.0963 49.7403 35.4279 49.2962C36.7594 48.8521 38.1654 48.6746 39.5655 48.7739C40.9657 48.8732 42.3325 49.2473 43.588 49.8749L64.4821 60.322L113.021 46.446C113.662 46.268 114.34 46.268 114.981 46.446L163.52 60.322L184.414 49.8749C185.669 49.2473 187.036 48.8732 188.436 48.7739C189.836 48.6746 191.242 48.8521 192.574 49.2962C193.905 49.7403 195.136 50.4424 196.197 51.3623C197.257 52.2822 198.125 53.402 198.753 54.6576L220.876 98.9128C221.508 100.166 221.885 101.533 221.984 102.934C222.083 104.334 221.903 105.74 221.455 107.071V107.098ZM15.088 106.875L34.0316 116.342L59.3432 65.7192L40.4085 56.2518C39.9904 56.0418 39.535 55.9163 39.0684 55.8823C38.6017 55.8483 38.1329 55.9066 37.6888 56.0538C37.2447 56.201 36.8339 56.4343 36.48 56.7403C36.126 57.0463 35.8358 57.419 35.6259 57.8371L13.5027 102.092C13.2928 102.51 13.1672 102.966 13.1332 103.432C13.0993 103.899 13.1575 104.368 13.3047 104.812C13.452 105.256 13.6852 105.667 13.9912 106.021C14.2972 106.375 14.6699 106.665 15.088 106.875ZM172.782 135.669L142.697 111.569C126.194 126.495 104.596 128.945 86.8902 117.634C85.5373 116.776 84.3945 115.625 83.5463 114.266C82.6981 112.907 82.1663 111.375 81.9901 109.783C81.814 108.19 81.998 106.579 82.5286 105.067C83.0592 103.556 83.9228 102.183 85.0555 101.05L125.757 61.5688C126.425 60.9205 127.32 60.5592 128.251 60.5624H138.44L114.001 53.5799L66.6107 67.1174L40.1769 119.994L87.0238 153.455L141.405 167.054L172.782 135.669ZM188.03 120.421L161.676 67.6874H129.694L90.0698 106.127C89.7008 106.497 89.4202 106.945 89.249 107.439C89.0778 107.932 89.0204 108.458 89.0812 108.977C89.138 109.517 89.3156 110.038 89.6008 110.5C89.886 110.963 90.2715 111.355 90.7288 111.649C103.153 119.584 122.613 121.837 139.971 104.346C140.591 103.722 141.42 103.35 142.298 103.3C143.176 103.251 144.041 103.528 144.727 104.078L177.868 130.619L188.03 120.421ZM214.49 102.092L192.376 57.8371C192.166 57.419 191.876 57.0463 191.522 56.7403C191.168 56.4343 190.757 56.201 190.313 56.0538C189.869 55.9066 189.4 55.8483 188.933 55.8823C188.467 55.9163 188.011 56.0418 187.593 56.2518L168.659 65.7192L193.97 116.342L212.914 106.875C213.332 106.665 213.705 106.375 214.011 106.021C214.316 105.667 214.55 105.256 214.697 104.812C214.844 104.368 214.902 103.899 214.868 103.432C214.835 102.966 214.709 102.51 214.499 102.092H214.49Z" fill="#545454"/>
</g>
</svg>
