<svg width="179" height="179" viewBox="0 0 179 179" fill="none" xmlns="http://www.w3.org/2000/svg">
<g id="solar:health-outline">
<g id="Group">
<path id="Vector" d="M128.434 52.5822C128.434 51.103 127.846 49.6844 126.8 48.6384C125.754 47.5925 124.336 47.0049 122.856 47.0049C121.377 47.0049 119.959 47.5925 118.913 48.6384C117.867 49.6844 117.279 51.103 117.279 52.5822V61.8777H107.984C106.504 61.8777 105.086 62.4653 104.04 63.5112C102.994 64.5572 102.406 65.9758 102.406 67.455C102.406 68.9342 102.994 70.3528 104.04 71.3987C105.086 72.4447 106.504 73.0323 107.984 73.0323H117.279V82.3278C117.279 83.807 117.867 85.2256 118.913 86.2715C119.959 87.3175 121.377 87.9051 122.856 87.9051C124.336 87.9051 125.754 87.3175 126.8 86.2715C127.846 85.2256 128.434 83.807 128.434 82.3278V73.0323H137.729C139.208 73.0323 140.627 72.4447 141.673 71.3987C142.719 70.3528 143.306 68.9342 143.306 67.455C143.306 65.9758 142.719 64.5572 141.673 63.5112C140.627 62.4653 139.208 61.8777 137.729 61.8777H128.434V52.5822Z" fill="white"/>
<path id="Vector_2" fill-rule="evenodd" clip-rule="evenodd" d="M169.334 69.8197C169.334 45.0863 158.313 26.6291 141.15 19.914C125.273 13.6898 106.214 18.345 89.3925 34.0878C72.5713 18.345 53.5118 13.6898 37.6351 19.914C20.4719 26.6291 9.45117 45.0863 9.45117 69.8123C9.45117 85.57 17.8543 101.067 28.3173 114.408C38.8919 127.891 52.1882 139.96 63.2833 148.965L64.2797 149.783C73.2034 157.034 79.6582 162.276 89.3925 162.276C99.1341 162.276 105.574 157.034 114.505 149.783L115.502 148.965C126.597 139.967 139.893 127.891 150.468 114.408C160.931 101.067 169.334 85.57 169.334 69.8197ZM93.4676 45.7927C109.173 28.9939 125.452 25.7442 137.09 30.2953C148.75 34.8612 158.179 48.217 158.179 69.8197C158.179 81.7998 151.635 94.8358 141.685 107.522C131.839 120.09 119.257 131.557 108.474 140.309C98.1154 148.712 94.769 151.114 89.3925 151.114C84.0159 151.114 80.6696 148.712 70.3107 140.302C59.5279 131.557 46.9455 120.082 37.0997 107.53C27.1424 94.8358 20.6058 81.7998 20.6058 69.8197C20.6058 48.217 30.0351 34.8686 41.6954 30.2953C53.3334 25.7442 69.6116 28.9939 85.3173 45.7927C85.8391 46.3511 86.4701 46.7963 87.1711 47.1007C87.8721 47.4051 88.6282 47.5622 89.3925 47.5622C90.1567 47.5622 90.9128 47.4051 91.6138 47.1007C92.3149 46.7963 92.9458 46.3511 93.4676 45.7927Z" fill="white"/>
</g>
</g>
</svg>
